<svg width="65" height="65" viewBox="0 0 65 65" fill="none" xmlns="http://www.w3.org/2000/svg">
<path d="M23.5976 53.1546V53.23H2V47.81H9.48746H11.6751L10.2437 46.1557C7.08825 42.5089 5.1753 37.7326 5.1753 32.5C5.1753 27.1523 7.17786 22.2752 10.4574 18.6015L14.2468 22.4239C11.9145 25.1194 10.5064 28.6421 10.5064 32.5C10.5064 40.9441 17.2725 47.81 25.6448 47.81C34.0172 47.81 40.7833 40.9441 40.7833 32.5C40.7833 24.8239 35.1947 18.4552 27.8881 17.357L26.7394 17.1844V18.3459V20.8636L18.8556 14.48L26.7394 8.09642V10.8721V11.7789L27.6419 11.8673C37.9995 12.8823 46.1144 21.7239 46.1144 32.5C46.1144 43.9603 36.9385 53.23 25.6448 53.23C25.4838 53.23 25.3234 53.2281 25.1637 53.2244L25.1633 53.2244C24.9904 53.2204 24.8184 53.2142 24.6462 53.2058L23.5976 53.1546ZM54.8417 54.23V53.23H53.8417H42.0627L47.4178 47.81H53.8417H54.8417V46.81V44.1364L62.7255 50.52L54.8417 56.9036V54.23Z" fill="white" stroke="#6366f1" stroke-width="2"/>
</svg>
