<svg width="65" height="65" viewBox="0 0 65 65" fill="none" xmlns="http://www.w3.org/2000/svg">
<path d="M27.4964 13.7775L27.9364 13.8099L28.2569 13.5067C30.8784 11.0269 34.4101 9.5 38.3 9.5C46.4305 9.5 52.98 16.1507 52.98 24.303C52.98 24.7714 52.9584 25.2351 52.916 25.6932L52.8769 26.1151L53.1529 26.4367C54.6155 28.1405 55.5 30.3618 55.5 32.7879C55.5 35.8495 54.0886 38.5952 51.8726 40.3807L51.5 40.6809V41.1593V45.5V46.5H52.5H62V51.5H46.5V43.5V42.5H45.5H19.5H18.5V43.5V51.5H3V46.5H12.5H13.5V45.5V41.8741V41.3226L13.0335 41.0284C10.3041 39.3065 8.5 36.2487 8.5 32.7879C8.5 29.1501 10.487 25.9687 13.4446 24.3042L13.8212 24.0922L13.925 23.6727C15.332 17.98 20.4307 13.7424 26.54 13.7424C26.8614 13.7424 27.1804 13.7543 27.4964 13.7775ZM40.5 51.5H42V56.5H34.5V46H39.5V50.5V51.5H40.5ZM25.5 50.5V46H30.5V56.5H23V51.5H24.5H25.5V50.5ZM38.3 14.5C35.2934 14.5 32.6017 15.8861 30.8184 18.0822L29.8366 19.2914L28.3184 18.943C27.7482 18.8121 27.1534 18.7424 26.54 18.7424C22.3925 18.7424 18.9452 21.9542 18.5732 26.1027L18.4226 27.7823L16.8089 28.2718C14.9055 28.8492 13.5 30.6453 13.5 32.7879C13.5 35.4167 15.6038 37.5 18.14 37.5H45.86C48.3962 37.5 50.5 35.4167 50.5 32.7879C50.5 31.2483 49.7762 29.8871 48.6543 29.0257L47.387 28.0525L47.7379 26.4937C47.896 25.7918 47.98 25.0588 47.98 24.303C47.98 18.8641 43.6213 14.5 38.3 14.5Z" fill="white" stroke="#6366f1" stroke-width="2"/>
</svg>
