<svg width="66" height="65" viewBox="0 0 66 65" fill="none" xmlns="http://www.w3.org/2000/svg">
<g clip-path="url(#clip0_948_7019)">
<path d="M65.1526 0H0.152588V65H65.1526V0Z" fill="none"/>
<path d="M15.8725 52.7299C10.5225 48.2999 7.11255 41.5999 7.11255 34.1099C7.11255 26.5999 10.5325 19.8999 15.9025 15.4599C17.4925 14.1399 19.2625 13.0299 21.1525 12.1499" stroke="#6366f1" stroke-width="3" stroke-miterlimit="10"/>
<path d="M26.1925 10.4699C27.8325 10.1199 29.5425 9.92993 31.2925 9.92993C43.8125 9.92993 54.1025 19.4399 55.3425 31.6399" stroke="#6366f1" stroke-width="3" stroke-miterlimit="10"/>
<path d="M55.2126 37.6299C54.8826 39.8999 54.2326 42.0699 53.3226 44.0799C49.5226 52.4599 41.0926 58.2899 31.2926 58.2899C27.3726 58.2899 23.6726 57.3599 20.4026 55.6999" stroke="#6366f1" stroke-width="3" stroke-miterlimit="10"/>
<path d="M40.7426 33.1399L42.9126 31.2599L39.6526 25.5299L36.9326 26.4299C36.3626 26.0099 35.7426 25.6499 35.0826 25.3599L34.5226 22.5499H27.9326L27.3726 25.3599C26.7126 25.6499 26.0926 26.0099 25.5226 26.4299L22.8026 25.5299L19.5426 31.2599L21.7126 33.1399C21.6826 33.4599 21.6626 33.7799 21.6626 34.1099C21.6626 34.4399 21.6826 34.7599 21.7126 35.0799L19.5426 36.9599L22.8026 42.6899L25.5226 41.7899C26.0926 42.2099 26.7126 42.5699 27.3726 42.8599L27.9326 45.6699H34.5226L35.0826 42.8599C35.7426 42.5699 36.3626 42.2099 36.9326 41.7899L39.6526 42.6899L42.9126 36.9599" stroke="#6366f1" stroke-width="3" stroke-miterlimit="10"/>
<path d="M31.2325 38.61C33.7178 38.61 35.7325 36.5953 35.7325 34.11C35.7325 31.6247 33.7178 29.61 31.2325 29.61C28.7473 29.61 26.7325 31.6247 26.7325 34.11C26.7325 36.5953 28.7473 38.61 31.2325 38.61Z" stroke="#6366f1" stroke-width="3" stroke-miterlimit="10"/>
<path d="M55.6725 35.78L51.4725 38.85L58.1925 40.33L55.6725 35.78Z" fill="#6366f1"/>
<path d="M24.3425 10.69L28.7025 13.53L27.7025 6.71997L24.3425 10.69Z" fill="#6366f1"/>
<path d="M17.2426 54.17L16.7726 48.99L12.0426 54L17.2426 54.17Z" fill="#6366f1"/>
</g>
<defs>
<clipPath id="clip0_948_7019">
<rect width="65" height="65" fill="none" transform="translate(0.152588)"/>
</clipPath>
</defs>
</svg>
