<svg width="140" height="140" viewBox="0 0 140 140" fill="none" xmlns="http://www.w3.org/2000/svg">
<path d="M36.9196 110.11C25.3996 100.56 18.0596 86.1301 18.0596 70.0001C18.0596 53.8301 25.4296 39.3901 36.9896 29.8401C40.4196 27.0101 44.2196 24.6001 48.2996 22.7101" stroke="white" stroke-width="6" stroke-miterlimit="10"/>
<path d="M59.1396 19.0901C62.6796 18.3301 66.3596 17.9301 70.1296 17.9301C97.0896 17.9301 119.27 38.4201 121.94 64.6801" stroke="white" stroke-width="6" stroke-miterlimit="10"/>
<path d="M121.66 77.5801C120.95 82.4701 119.56 87.1301 117.59 91.4801C109.41 109.53 91.2397 122.08 70.1397 122.08C61.6997 122.08 53.7297 120.07 46.6797 116.51" stroke="white" stroke-width="6" stroke-miterlimit="10"/>
<path d="M90.4798 67.9101L95.1498 63.8701L88.1398 51.5301L82.2698 53.4801C81.0398 52.5701 79.7098 51.7901 78.2898 51.1601L77.0898 45.1001H62.8998L61.6998 51.1601C60.2798 51.7901 58.9498 52.5601 57.7198 53.4801L51.8498 51.5301L44.8398 63.8701L49.5098 67.9101C49.4398 68.6001 49.3998 69.2901 49.3998 70.0001C49.3998 70.7101 49.4398 71.4001 49.5098 72.0901L44.8398 76.1301L51.8498 88.4701L57.7198 86.5201C58.9498 87.4301 60.2798 88.2101 61.6998 88.8401L62.8998 94.9001H77.0998L78.2998 88.8401C79.7198 88.2101 81.0498 87.4401 82.2798 86.5201L88.1498 88.4701L95.1598 76.1301" stroke="white" stroke-width="6" stroke-miterlimit="10"/>
<path d="M69.9998 79.7C75.357 79.7 79.6998 75.3572 79.6998 70C79.6998 64.6429 75.357 60.3 69.9998 60.3C64.6426 60.3 60.2998 64.6429 60.2998 70C60.2998 75.3572 64.6426 79.7 69.9998 79.7Z" stroke="white" stroke-width="6" stroke-miterlimit="10"/>
<path d="M122.66 73.99L113.61 80.59L128.09 83.79L122.66 73.99Z" fill="white"/>
<path d="M55.1904 19.94L64.5804 26.05L62.4204 11.38L55.1904 19.94Z" fill="white"/>
<path d="M39.9002 113.59L38.8802 102.43L28.7002 113.22L39.9002 113.59Z" fill="white"/>
</svg>
