<svg width="66" height="65" viewBox="0 0 66 65" fill="none" xmlns="http://www.w3.org/2000/svg">
<path fill-rule="evenodd" clip-rule="evenodd" d="M33 28.5C20.2975 28.5 10 38.7975 10 51.5V58C10 59.933 11.567 61.5 13.5 61.5H15.5C16.3284 61.5 17 60.8284 17 60C17 59.1716 16.3284 58.5 15.5 58.5H15C13.8954 58.5 13 57.6046 13 56.5V51.5C13 40.4543 21.9543 31.5 33 31.5C44.0457 31.5 53 40.4543 53 51.5V54.5C53 56.7091 51.2091 58.5 49 58.5H25.5C24.6716 58.5 24 59.1716 24 60C24 60.8284 24.6716 61.5 25.5 61.5H52C54.2091 61.5 56 59.7091 56 57.5V51.5C56 38.7975 45.7025 28.5 33 28.5Z" fill="#6366f1"/>
<path fill-rule="evenodd" clip-rule="evenodd" d="M53 56C53 53.5147 55.0147 51.5 57.5 51.5C59.9853 51.5 62 53.5147 62 56V61.5H53V56ZM57.5 54.5C56.6716 54.5 56 55.1716 56 56V58.5H59V56C59 55.1716 58.3284 54.5 57.5 54.5Z" fill="#6366f1"/>
<path fill-rule="evenodd" clip-rule="evenodd" d="M4 56C4 53.5147 6.01472 51.5 8.5 51.5C10.9853 51.5 13 53.5147 13 56V61.5H4V56ZM8.5 54.5C7.67157 54.5 7 55.1716 7 56V58.5H10V56C10 55.1716 9.32843 54.5 8.5 54.5Z" fill="#6366f1"/>
<path fill-rule="evenodd" clip-rule="evenodd" d="M18.8929 22.4429L22.8929 32.4429L20.1074 33.5571L16.1074 23.5571L18.8929 22.4429Z" fill="#6366f1"/>
<path fill-rule="evenodd" clip-rule="evenodd" d="M49.8929 23.5571L45.8929 33.5571L43.1074 32.4429L47.1074 22.4429L49.8929 23.5571Z" fill="#6366f1"/>
<circle cx="25.5" cy="44" r="2" fill="#6366f1"/>
<circle cx="40.5" cy="44" r="2" fill="#6366f1"/>
<path fill-rule="evenodd" clip-rule="evenodd" d="M16.412 19L17.1643 16.805H20.7157L21.468 19H26.4158L21.2898 5H16.626L11.5 19H16.412ZM18.5054 12.8949L18.9443 11.5987L19.3884 12.8949H18.5054Z" fill="#6366f1"/>
<path fill-rule="evenodd" clip-rule="evenodd" d="M36.5734 13.8976C37.3799 13.4716 38.0141 12.894 38.4333 12.1543L38.4365 12.1485C38.8385 11.4249 39.0363 10.6329 39.0363 9.7873C39.0363 8.88945 38.8355 8.06194 38.4128 7.32733C37.9804 6.57584 37.3366 6.00071 36.5184 5.5964C35.6875 5.18586 34.7102 5 33.6187 5H27.8608V19H32.5161V14.5392H33.6187C34.7377 14.5392 35.7353 14.3403 36.5734 13.8976ZM34.1426 10.3699C34.0616 10.4467 33.8619 10.5583 33.3858 10.5583H32.5161V9.0163H33.3858C33.8619 9.0163 34.0616 9.12795 34.1426 9.20471C34.2336 9.29088 34.3273 9.44624 34.3273 9.7873C34.3273 10.1284 34.2336 10.2837 34.1426 10.3699Z" fill="#6366f1"/>
<path fill-rule="evenodd" clip-rule="evenodd" d="M45.6844 15.058L48.7212 19H54.5L48.8222 11.877L54.3247 5H48.6849L45.6844 8.9028V5H41.029V19H45.6844V15.058Z" fill="#6366f1"/>
<path fill-rule="evenodd" clip-rule="evenodd" d="M16.412 19L17.1643 16.805H20.7157L21.468 19H26.4158L21.2898 5H16.626L11.5 19H16.412ZM18.5054 12.8949L18.9443 11.5987L19.3884 12.8949H18.5054Z" stroke="white" stroke-width="2"/>
<path fill-rule="evenodd" clip-rule="evenodd" d="M36.5734 13.8976C37.3799 13.4716 38.0141 12.894 38.4333 12.1543L38.4365 12.1485C38.8385 11.4249 39.0363 10.6329 39.0363 9.7873C39.0363 8.88945 38.8355 8.06194 38.4128 7.32733C37.9804 6.57584 37.3366 6.00071 36.5184 5.5964C35.6875 5.18586 34.7102 5 33.6187 5H27.8608V19H32.5161V14.5392H33.6187C34.7377 14.5392 35.7353 14.3403 36.5734 13.8976ZM34.1426 10.3699C34.0616 10.4467 33.8619 10.5583 33.3858 10.5583H32.5161V9.0163H33.3858C33.8619 9.0163 34.0616 9.12795 34.1426 9.20471C34.2336 9.29088 34.3273 9.44624 34.3273 9.7873C34.3273 10.1284 34.2336 10.2837 34.1426 10.3699Z" stroke="white" stroke-width="2"/>
<path fill-rule="evenodd" clip-rule="evenodd" d="M45.6844 15.058L48.7212 19H54.5L48.8222 11.877L54.3247 5H48.6849L45.6844 8.9028V5H41.029V19H45.6844V15.058Z" stroke="white" stroke-width="2"/>
</svg>
