<svg width="49" height="55" viewBox="0 0 49 55" fill="none" xmlns="http://www.w3.org/2000/svg">
<path fill-rule="evenodd" clip-rule="evenodd" d="M3.5 3.5C3.22386 3.5 3 3.72386 3 4V40.5C3 41.6046 3.89543 42.5 5 42.5H30C30.8284 42.5 31.5 43.1716 31.5 44C31.5 44.8284 30.8284 45.5 30 45.5H5C3.89543 45.5 3 46.3954 3 47.5V51C3 51.2761 3.22386 51.5 3.5 51.5H34.5C34.7761 51.5 35 51.2761 35 51V44C35 43.1716 35.6716 42.5 36.5 42.5C37.3284 42.5 38 43.1716 38 44V51C38 52.933 36.433 54.5 34.5 54.5H3.5C1.567 54.5 0 52.933 0 51V4C0 2.067 1.567 0.5 3.5 0.5H34.5C36.433 0.5 38 2.067 38 4V7C38 7.82843 37.3284 8.5 36.5 8.5C35.6716 8.5 35 7.82843 35 7V4C35 3.72386 34.7761 3.5 34.5 3.5H3.5ZM39.4715 13.2282C39.297 12.5076 38.6519 12 37.9104 12H34.0896C33.3481 12 32.703 12.5076 32.5285 13.2282C32.2723 14.2862 31.0601 14.7883 30.1308 14.2214C29.4979 13.8352 28.6828 13.9324 28.1585 14.4567L25.4567 17.1585C24.9324 17.6828 24.8352 18.4979 25.2214 19.1308C25.7883 20.0601 25.2862 21.2723 24.2282 21.5285C23.5076 21.703 23 22.3481 23 23.0896V26.9104C23 27.6519 23.5076 28.297 24.2282 28.4715C25.2862 28.7277 25.7883 29.9399 25.2214 30.8692C24.8352 31.5022 24.9324 32.3172 25.4567 32.8415L28.1585 35.5433C28.6828 36.0676 29.4979 36.1648 30.1308 35.7786C31.0601 35.2117 32.2723 35.7138 32.5285 36.7718C32.703 37.4924 33.3481 38 34.0896 38H37.9104C38.6519 38 39.297 37.4924 39.4715 36.7718C39.7277 35.7138 40.9399 35.2117 41.8692 35.7786C42.5022 36.1648 43.3172 36.0676 43.8415 35.5433L46.5433 32.8415C47.0676 32.3172 47.1648 31.5022 46.7786 30.8692C46.2117 29.9399 46.7138 28.7277 47.7718 28.4715C48.4924 28.297 49 27.6519 49 26.9104V23.0896C49 22.3481 48.4924 21.703 47.7718 21.5285C46.7138 21.2723 46.2117 20.0601 46.7786 19.1308C47.1648 18.4979 47.0676 17.6828 46.5433 17.1585L43.8415 14.4567C43.3172 13.9324 42.5022 13.8352 41.8692 14.2214C40.9399 14.7883 39.7277 14.2862 39.4715 13.2282ZM33.4062 18.0552C33.8023 17.9072 34.0992 17.5723 34.1988 17.1613L34.5563 15.6849C34.7177 15.0184 35.3143 14.549 36 14.549C36.6857 14.549 37.2823 15.0184 37.4437 15.6849L37.8012 17.1613C37.9008 17.5723 38.1977 17.9072 38.5938 18.0552C38.7572 18.1162 38.9179 18.1829 39.0756 18.255C39.4605 18.4308 39.9077 18.4041 40.269 18.1837L41.566 17.3924C42.1513 17.0352 42.9051 17.1252 43.39 17.61C43.8748 18.0949 43.9648 18.8487 43.6076 19.434L42.8163 20.731C42.5959 21.0923 42.5692 21.5395 42.7451 21.9244C42.8171 22.0821 42.8838 22.2428 42.9448 22.4062C43.0928 22.8023 43.4277 23.0992 43.8387 23.1988L45.3151 23.5563C45.9816 23.7177 46.451 24.3143 46.451 25C46.451 25.6857 45.9816 26.2823 45.3151 26.4437L43.8387 26.8012C43.4277 26.9008 43.0928 27.1977 42.9448 27.5938C42.8838 27.7572 42.8171 27.9179 42.745 28.0756C42.5692 28.4606 42.5959 28.9077 42.8163 29.269L43.6076 30.566C43.9648 31.1513 43.8748 31.9051 43.39 32.39C42.9051 32.8748 42.1513 32.9648 41.566 32.6076L40.269 31.8163C39.9077 31.5959 39.4606 31.5692 39.0756 31.745C38.9179 31.8171 38.7572 31.8838 38.5938 31.9448C38.1977 32.0928 37.9008 32.4277 37.8012 32.8387L37.4437 34.3151C37.2823 34.9816 36.6857 35.451 36 35.451C35.3143 35.451 34.7177 34.9816 34.5563 34.3151L34.1988 32.8387C34.0992 32.4277 33.8023 32.0928 33.4062 31.9448C33.2428 31.8838 33.0821 31.8171 32.9244 31.7451C32.5395 31.5692 32.0923 31.5959 31.731 31.8163L30.434 32.6076C29.8487 32.9648 29.0949 32.8748 28.61 32.39C28.1252 31.9051 28.0352 31.1513 28.3924 30.566L29.1837 29.269C29.4041 28.9077 29.4308 28.4605 29.255 28.0756C29.1829 27.9179 29.1162 27.7572 29.0552 27.5938C28.9072 27.1977 28.5723 26.9008 28.1613 26.8012L26.6849 26.4437C26.0184 26.2823 25.549 25.6857 25.549 25C25.549 24.3143 26.0184 23.7177 26.6849 23.5563L28.1613 23.1988C28.5723 23.0992 28.9072 22.8023 29.0552 22.4062C29.1162 22.2428 29.1829 22.0821 29.255 21.9244C29.4308 21.5395 29.4041 21.0923 29.1837 20.731L28.3924 19.434C28.0352 18.8487 28.1252 18.0949 28.61 17.61C29.0949 17.1252 29.8487 17.0352 30.434 17.3924L31.731 18.1837C32.0923 18.4041 32.5395 18.4308 32.9244 18.255C33.0821 18.1829 33.2428 18.1162 33.4062 18.0552ZM36 21.1198C33.857 21.1198 32.1198 22.857 32.1198 25C32.1198 27.143 33.857 28.8802 36 28.8802C38.143 28.8802 39.8802 27.143 39.8802 25C39.8802 22.857 38.143 21.1198 36 21.1198ZM34.6688 25C34.6688 24.2648 35.2648 23.6688 36 23.6688C36.7352 23.6688 37.3312 24.2648 37.3312 25C37.3312 25.7352 36.7352 26.3312 36 26.3312C35.2648 26.3312 34.6688 25.7352 34.6688 25Z" fill="#6366f1"/>
</svg>
