<svg width="65" height="65" viewBox="0 0 65 65" fill="none" xmlns="http://www.w3.org/2000/svg">
<path fill-rule="evenodd" clip-rule="evenodd" d="M10 7.98053C10 6.90494 8.92567 6.15489 7.96269 6.63403C7.06685 7.07976 6.27393 7.57472 5.61541 8.11964C4.42528 9.10446 3.5 10.4081 3.5 12V26C3.5 27.5919 4.42528 28.8955 5.61541 29.8804C6.81508 30.8731 8.46082 31.7 10.3623 32.3655C14.1792 33.7014 19.3545 34.5 25 34.5C30.6455 34.5 35.8208 33.7014 39.6377 32.3655C41.5392 31.7 43.1849 30.8731 44.3846 29.8804C45.5747 28.8955 46.5 27.5919 46.5 26V12C46.5 10.4081 45.5747 9.10446 44.3846 8.11964C43.1849 7.12692 41.5392 6.3 39.6377 5.63446C35.8208 4.29855 30.6455 3.5 25 3.5C22.6565 3.5 20.394 3.6376 18.2761 3.89412C17.5417 3.98308 17 4.61354 17 5.35336C17 6.2706 17.8196 6.96961 18.7304 6.86111C20.6868 6.62807 22.7955 6.5 25 6.5C30.4002 6.5 35.2249 7.26845 38.6466 8.46604C40.3644 9.06726 41.6476 9.74871 42.472 10.4309C43.306 11.121 43.5 11.6589 43.5 12C43.5 12.3411 43.306 12.879 42.472 13.5691C41.6476 14.2513 40.3644 14.9327 38.6466 15.534C35.2249 16.7316 30.4002 17.5 25 17.5C19.5998 17.5 14.7751 16.7316 11.3534 15.534C9.63562 14.9327 8.35243 14.2513 7.52799 13.5691C6.69401 12.879 6.5 12.3411 6.5 12C6.5 11.6589 6.69401 11.121 7.52799 10.4309C7.93572 10.0935 8.45565 9.75633 9.08487 9.42892C9.63083 9.14483 10 8.59597 10 7.98053ZM39.6377 18.3655C41.1071 17.8512 42.4239 17.2405 43.5 16.5314V26C43.5 26.3411 43.306 26.879 42.472 27.5691C41.6476 28.2513 40.3644 28.9327 38.6466 29.534C35.2249 30.7316 30.4002 31.5 25 31.5C19.5998 31.5 14.7751 30.7316 11.3534 29.534C9.63562 28.9327 8.35243 28.2513 7.52799 27.5691C6.69401 26.879 6.5 26.3411 6.5 26V16.5314C7.57615 17.2405 8.89287 17.8512 10.3623 18.3655C14.1792 19.7014 19.3545 20.5 25 20.5C30.6455 20.5 35.8208 19.7014 39.6377 18.3655Z" fill="#6366f1"/>
<path fill-rule="evenodd" clip-rule="evenodd" d="M43.5 34C43.5 33.6543 43.5777 33.2708 43.8818 33.1064L44.6507 32.6907C45.3795 32.2968 46.3274 32.5709 46.4533 33.3897C46.484 33.5892 46.5 33.7927 46.5 34V41C46.5 41.8284 45.8284 42.5 45 42.5H44.8893C44.122 42.5 43.5 41.878 43.5 41.1107C43.5 40.0044 42.2405 39.3005 41.227 39.7439C40.722 39.9648 40.1906 40.172 39.6377 40.3655C35.8208 41.7014 30.6455 42.5 25 42.5C19.3545 42.5 14.1792 41.7014 10.3623 40.3655C8.89287 39.8512 7.57615 39.2405 6.5 38.5314V48C6.5 48.3108 6.65743 48.7791 7.3181 49.3863C7.97921 49.9939 9.02271 50.6192 10.4524 51.1956C12.9947 52.2206 16.5136 52.9934 20.5818 53.3238C21.4075 53.3909 22.0436 54.0945 22 54.9218C21.9564 55.7491 21.2499 56.3866 20.4241 56.3208C16.1052 55.9768 12.2431 55.1522 9.33069 53.978C7.71321 53.3259 6.31093 52.5352 5.28807 51.5951C4.26475 50.6546 3.5 49.4438 3.5 48V34C3.5 33.7927 3.51604 33.5892 3.54672 33.3897C3.67264 32.5709 4.62049 32.2968 5.34925 32.6907L6.11818 33.1064C6.42227 33.2708 6.5 33.6543 6.5 34C6.5 34.3411 6.69401 34.879 7.52799 35.5691C8.35243 36.2513 9.63562 36.9327 11.3534 37.534C14.7751 38.7316 19.5998 39.5 25 39.5C30.4002 39.5 35.2249 38.7316 38.6466 37.534C40.3644 36.9327 41.6476 36.2513 42.472 35.5691C43.306 34.879 43.5 34.3411 43.5 34Z" fill="#6366f1"/>
<path fill-rule="evenodd" clip-rule="evenodd" d="M28 45.5C26.067 45.5 24.5 47.067 24.5 49V57C24.5 58.933 26.067 60.5 28 60.5H29.5C30.3284 60.5 31 59.8284 31 59C31 58.1716 30.3284 57.5 29.5 57.5H28C27.7239 57.5 27.5 57.2761 27.5 57V49C27.5 48.7239 27.7239 48.5 28 48.5H57C57.2761 48.5 57.5 48.7239 57.5 49V57C57.5 57.2761 57.2761 57.5 57 57.5H39.5C38.6716 57.5 38 58.1716 38 59C38 59.8284 38.6716 60.5 39.5 60.5H57C58.933 60.5 60.5 58.933 60.5 57V49C60.5 47.067 58.933 45.5 57 45.5H28Z" fill="#6366f1"/>
<path fill-rule="evenodd" clip-rule="evenodd" d="M55 53C55 53.8284 54.3284 54.5 53.5 54.5H41.5C40.6716 54.5 40 53.8284 40 53C40 52.1716 40.6716 51.5 41.5 51.5H53.5C54.3284 51.5 55 52.1716 55 53Z" fill="#6366f1"/>
<path fill-rule="evenodd" clip-rule="evenodd" d="M36 53C36 53.8284 35.3284 54.5 34.5 54.5H31.5C30.6716 54.5 30 53.8284 30 53C30 52.1716 30.6716 51.5 31.5 51.5H34.5C35.3284 51.5 36 52.1716 36 53Z" fill="#6366f1"/>
</svg>
