<svg width="98" height="70" viewBox="0 0 98 70" fill="none" xmlns="http://www.w3.org/2000/svg">
<path d="M32.9135 40.6993C24.7202 40.6993 18.0273 34.0661 18.0273 25.9795C18.0273 17.8928 24.7202 11.2596 32.9135 11.2596C41.1068 11.2596 47.7997 17.8928 47.7997 25.9795C47.7997 34.0686 41.1825 40.6993 32.9135 40.6993ZM32.9135 17.4946C28.2069 17.4946 24.3454 21.3035 24.3454 25.9795C24.3454 30.6554 28.2069 34.4644 32.9135 34.4644C37.6201 34.4644 41.4816 30.6554 41.4816 25.9795C41.4816 21.3084 37.7032 17.4946 32.9135 17.4946Z" fill="#6366f1" stroke="white" stroke-width="1.5"/>
<path d="M1.73738 65.9905C3.02968 56.4428 8.61142 48.2118 16.522 43.3226C17.8182 42.5215 19.5421 43.0164 20.3618 44.4275C21.2665 45.9848 20.6455 48.0725 19.023 49.1699C13.382 52.9852 9.35108 58.9519 8.14438 65.8798C7.8274 67.6996 6.37313 69.0921 4.66834 69.0921C2.8761 69.0921 1.5141 67.6401 1.73738 65.9905Z" fill="#6366f1" stroke="white" stroke-width="1.5"/>
<path d="M58.9314 65.8789C57.713 58.9534 53.6488 52.9908 48.041 49.1767C46.4245 48.0773 45.8082 45.9931 46.7115 44.438C47.5336 43.0229 49.2637 42.5291 50.5611 43.3365C58.4225 48.2287 64.0384 56.4545 65.3399 65.9916C65.5649 67.64 64.2037 69.0921 62.4112 69.0921C60.7065 69.0921 59.2517 67.6994 58.9314 65.8789Z" fill="#6366f1" stroke="white" stroke-width="1.5"/>
<path d="M95.1589 22.4248C95.1589 33.1769 86.2218 41.9731 75.0975 41.9731C63.9733 41.9731 55.0361 33.1769 55.0361 22.4248C55.0361 11.6726 63.9733 2.8764 75.0975 2.8764C86.2218 2.8764 95.1589 11.6726 95.1589 22.4248Z" stroke="#6366f1" stroke-width="4"/>
<path d="M70.1099 22.52L69.3999 27.46C69.3261 28.0494 69.6899 28.6 70.5399 28.6L75.4799 27.89C75.6954 27.8614 75.8956 27.763 76.0499 27.61C76.1288 27.5311 83.8799 19.7872 83.9499 19.7C87.3922 15.8977 81.9748 10.7113 78.2999 14.05C78.2133 14.1193 70.4683 21.8716 70.3899 21.95C70.2369 22.1043 70.1386 22.3045 70.1099 22.52V22.52ZM80.9999 15.02C81.2618 15.0166 81.5218 15.0653 81.7647 15.1633C82.0076 15.2613 82.2286 15.4067 82.4147 15.591C82.6008 15.7753 82.7485 15.9948 82.8489 16.2367C82.9494 16.4786 83.0007 16.7381 82.9999 17C83.0005 17.4267 82.8599 17.8416 82.5999 18.18L79.8199 15.4C80.1609 15.1473 80.5756 15.0138 80.9999 15.02V15.02ZM72.0399 23.13L78.3799 16.8L81.1999 19.62L74.8699 25.96L71.5699 26.43L72.0399 23.13Z" fill="#6366f1" stroke="#6366f1" stroke-width="0.2"/>
<path d="M82 24.125V28C81.9991 28.7954 81.6828 29.5579 81.1204 30.1204C80.5579 30.6828 79.7954 30.9991 79 31H70C69.2046 30.9991 68.4421 30.6828 67.8796 30.1204C67.3172 29.5579 67.0009 28.7954 67 28V19C67.0009 18.2046 67.3172 17.4421 67.8796 16.8796C68.4421 16.3172 69.2046 16.0009 70 16H73.9688C74.234 16 74.4884 15.8946 74.6759 15.7071C74.8634 15.5196 74.9688 15.2652 74.9688 15C74.9688 14.7348 74.8634 14.4804 74.6759 14.2929C74.4884 14.1054 74.234 14 73.9688 14H70C68.6744 14.0016 67.4035 14.5288 66.4662 15.4662C65.5288 16.4035 65.0016 17.6744 65 19V28C65.0016 29.3256 65.5288 30.5965 66.4662 31.5338C67.4035 32.4712 68.6744 32.9984 70 33H79C80.3256 32.9984 81.5965 32.4712 82.5338 31.5338C83.4712 30.5965 83.9984 29.3256 84 28V24.125C84 23.8598 83.8946 23.6054 83.7071 23.4179C83.5196 23.2304 83.2652 23.125 83 23.125C82.7348 23.125 82.4804 23.2304 82.2929 23.4179C82.1054 23.6054 82 23.8598 82 24.125Z" fill="#6366f1" stroke="#6366f1" stroke-width="0.2"/>
</svg>
