<svg width="66" height="65" viewBox="0 0 66 65" fill="none" xmlns="http://www.w3.org/2000/svg">
<g clip-path="url(#clip0_607_6235)">
<path fill-rule="evenodd" clip-rule="evenodd" d="M43.7791 14.6462L44.295 13.6267C46.4658 9.90999 51.0078 7.92992 55.5027 9.13433C60.8683 10.572 64.0231 15.9729 62.6365 21.1477C61.6821 24.7097 58.8151 27.2871 55.366 28.0802C54.713 28.2304 54.1673 28.712 54.0283 29.3675C53.8174 30.3616 54.6029 31.2903 55.6004 31.0962C60.2623 30.1893 64.234 26.7766 65.5343 21.9242C67.3653 15.0905 63.186 8.08725 56.2792 6.23655C49.3723 4.38586 42.2513 8.3612 40.4202 15.1949C39.6555 18.0486 39.9394 20.9285 41.0305 23.4524L43.9745 22.678C42.9855 20.6476 42.6978 18.286 43.318 15.9713C43.4408 15.5128 43.5955 15.0705 43.7791 14.6462ZM50.5534 14.7259C49.074 14.2496 48.9022 12.6139 50.4524 12.5029C50.7493 12.4817 50.9531 12.4875 51 12.5C51.6584 12.6765 53.2954 13.4449 53.8243 13.7879L49.9672 31.694L20.9635 48.4393L6.5618 23.4948L35.1224 7.00526C35.4046 6.84239 35.7424 6.80641 36.0525 6.90623C36.8454 7.16148 37.3993 8.31862 36.9544 9.0229C36.7549 9.33882 36.4343 9.67739 35.8415 10.0542L10.6599 24.5928L22.0616 44.3412L47.3147 29.7613L50.5534 14.7259ZM8.71136 36.2153L10.2114 35.2993L8.71136 32.7013L4.61328 35.1172L18.4171 59.0262L46.1637 43.0067L47.5047 36.9766L44 39L43.5112 41.074L19.5152 54.9281L8.71136 36.2153Z" fill="#6366f1"/>
<path fill-rule="evenodd" clip-rule="evenodd" d="M38.0342 22.5C40.5377 22.5 42.6559 20.8034 43.2996 18.4823C43.5209 17.684 44.1718 17 45.0002 17C45.8286 17 46.514 17.6772 46.3699 18.493C45.6675 22.4709 42.208 25.5 38.0342 25.5C35.4333 25.5 33.1098 24.3222 31.5591 22.4758C31.0263 21.8415 31.2822 20.9133 32.0002 20.5C32.7182 20.0867 33.6241 20.354 34.2148 20.9348C35.202 21.9052 36.5504 22.5 38.0342 22.5Z" fill="#6366f1"/>
</g>
<defs>
<clipPath id="clip0_607_6235">
<rect width="65" height="65" fill="white" transform="translate(0.958984)"/>
</clipPath>
</defs>
</svg>
