<svg width="98" height="69" viewBox="0 0 98 69" fill="none" xmlns="http://www.w3.org/2000/svg">
<path d="M32.2592 38.4379C24.066 38.4379 17.373 31.8047 17.373 23.718C17.373 15.6314 24.066 8.9982 32.2592 8.9982C40.4525 8.9982 47.1454 15.6314 47.1454 23.718C47.1454 31.8071 40.5282 38.4379 32.2592 38.4379ZM32.2592 15.2331C27.5526 15.2331 23.6911 19.0421 23.6911 23.718C23.6911 28.394 27.5526 32.203 32.2592 32.203C36.9658 32.203 40.8273 28.394 40.8273 23.718C40.8273 19.047 37.0489 15.2331 32.2592 15.2331Z" fill="#6366f1" stroke="white" stroke-width="1.5"/>
<path d="M15.8667 42.0611C17.1629 41.26 18.8869 41.7549 19.7066 43.166C20.6112 44.7233 19.9902 46.811 18.3677 47.9084C12.7267 51.7237 8.6958 57.6904 7.48911 64.6183C7.17212 66.4382 5.71785 67.8306 4.01307 67.8306C2.22083 67.8306 0.858829 66.3786 1.0821 64.7291C2.37441 55.1814 7.95614 46.9503 15.8667 42.0611Z" fill="#6366f1" stroke="white" stroke-width="1.5"/>
<path d="M46.0563 43.1765C46.8783 41.7614 48.6084 41.2677 49.9058 42.0751C57.7673 46.9672 63.3831 55.1931 64.6847 64.7301C64.9096 66.3785 63.5484 67.8306 61.7559 67.8306C60.0512 67.8306 58.5964 66.438 58.2761 64.6175C57.0577 57.6919 52.9935 51.7294 47.3857 47.9152C45.7692 46.8158 45.1529 44.7316 46.0563 43.1765Z" fill="#6366f1" stroke="white" stroke-width="1.5"/>
<path d="M32.4937 36.2488L32.1028 34.9336L31.7119 36.2488C31.9465 36.2488 32.1028 36.2488 32.3374 36.2488C32.3374 36.3261 32.4155 36.2488 32.4937 36.2488Z" fill="#6366f1"/>
<path d="M95.53 21.5877C95.53 32.3399 86.5929 41.1361 75.4686 41.1361C64.3444 41.1361 55.4072 32.3399 55.4072 21.5877C55.4072 10.8356 64.3444 2.0394 75.4686 2.0394C86.5929 2.0394 95.53 10.8356 95.53 21.5877Z" stroke="#6366f1" stroke-width="4"/>
<path d="M70.0019 15.3623H67.241L67.1054 15.5488C66.6935 16.1155 66.0227 16.4831 65.2651 16.4831C64.0141 16.4831 63 15.4795 63 14.2415C63 13.0036 64.0141 12 65.2651 12C66.0227 12 66.6935 12.3676 67.1054 12.9343L67.241 13.1208L73.8725 13.1208V12H77.9498V13.1208L84.5815 13.1208L84.717 12.9343C85.129 12.3676 85.7998 12 86.5573 12C87.8083 12 88.8225 13.0036 88.8225 14.2415C88.8225 15.4795 87.8083 16.4831 86.5573 16.4831C85.7998 16.4831 85.129 16.1155 84.717 15.5488L84.5815 15.3623H81.8206L82.691 16.1428C84.544 17.8046 85.7439 20.1391 85.8674 22.7594H83.5988C83.4121 19.7766 81.3758 17.2455 78.5541 16.2565L77.9498 16.0447V16.9314H73.8725V16.0448L73.2683 16.2566C70.4466 17.2456 68.4104 19.7767 68.2238 22.7594H65.9552C66.0786 20.1391 67.2786 17.8046 69.1316 16.1428L70.0019 15.3623Z" fill="#6366f1"/>
<path fill-rule="evenodd" clip-rule="evenodd" d="M78.0632 30.2909C78.0632 29.4635 77.5962 28.7452 76.9114 28.3851V20.8285L82.3663 27.898L80.9699 32.3417H82.024V34.5946L69.7973 34.5946L69.7973 32.3417H70.8515L69.4551 27.898L74.9114 20.8266V28.385C74.2265 28.745 73.7594 29.4634 73.7594 30.2909C73.7594 31.4794 74.7229 32.4428 75.9113 32.4428C77.0998 32.4428 78.0632 31.4794 78.0632 30.2909Z" fill="#6366f1"/>
</svg>
