<svg width="106" height="70" viewBox="0 0 106 70" fill="none" xmlns="http://www.w3.org/2000/svg">
<path d="M103.752 21.5893C103.752 32.3415 94.8145 41.1377 83.6903 41.1377C72.5661 41.1377 63.6289 32.3415 63.6289 21.5893C63.6289 10.8372 72.5661 2.04095 83.6903 2.04095C94.8145 2.04095 103.752 10.8372 103.752 21.5893Z" stroke="#6366f1" stroke-width="4"/>
<path d="M32.2719 39.4656C24.0786 39.4656 17.3857 32.8324 17.3857 24.7457C17.3857 16.6591 24.0786 10.0259 32.2719 10.0259C40.4652 10.0259 47.1581 16.6591 47.1581 24.7457C47.1581 32.8348 40.5409 39.4656 32.2719 39.4656ZM32.2719 16.2608C27.5653 16.2608 23.7038 20.0698 23.7038 24.7457C23.7038 29.4217 27.5653 33.2307 32.2719 33.2307C36.9785 33.2307 40.84 29.4217 40.84 24.7457C40.84 20.0747 37.0616 16.2608 32.2719 16.2608Z" fill="#6366f1" stroke="white" stroke-width="1.5"/>
<path d="M15.8794 43.0888C17.1756 42.2877 18.8996 42.7826 19.7193 44.1937C20.6239 45.751 20.0029 47.8387 18.3804 48.9361C12.7394 52.7514 8.7085 58.7181 7.5018 65.646C7.18482 67.4658 5.73055 68.8583 4.02576 68.8583C2.23352 68.8583 0.871524 67.4063 1.0948 65.7567C2.3871 56.209 7.96884 47.978 15.8794 43.0888Z" fill="#6366f1" stroke="white" stroke-width="1.5"/>
<path d="M46.069 44.2042C46.891 42.7891 48.6211 42.2953 49.9185 43.1027C57.78 47.9949 63.3958 56.2207 64.6974 65.7578C64.9223 67.4062 63.5611 68.8583 61.7686 68.8583C60.0639 68.8583 58.6091 67.4656 58.2888 65.6451C57.0704 58.7196 53.0062 52.757 47.3984 48.9429C45.7819 47.8435 45.1656 45.7593 46.069 44.2042Z" fill="#6366f1" stroke="white" stroke-width="1.5"/>
<path fill-rule="evenodd" clip-rule="evenodd" d="M89.3743 7.36375C87.6541 7.27592 85.9471 8.13262 85.0266 9.72682C84.2913 11.0005 84.2147 12.474 84.6914 13.7524C84.7641 13.9474 84.8178 14.1435 84.8545 14.3407L78.2895 25.7115C76.7423 25.7936 75.2662 26.6322 74.4338 28.074C73.1258 30.3396 73.902 33.2365 76.1675 34.5445C78.4331 35.8525 81.33 35.0763 82.638 32.8107C83.4762 31.3589 83.4585 29.6478 82.7414 28.2617L89.29 16.9193C89.4873 16.8544 89.6942 16.8034 89.9123 16.7667C91.2577 16.5403 92.4955 15.7372 93.2309 14.4635C94.1513 12.8693 94.0397 10.9626 93.1035 9.5168L91.2087 12.7988L88.9135 12.4681L87.4795 10.6457L89.3743 7.36375ZM79.1818 29.3236C78.5639 28.9669 77.7738 29.1786 77.4171 29.7965C77.0604 30.4143 77.2721 31.2044 77.89 31.5611C78.5078 31.9179 79.2979 31.7062 79.6546 31.0883C80.0114 30.4704 79.7997 29.6804 79.1818 29.3236Z" fill="#6366f1" stroke="white" stroke-width="0.5"/>
</svg>
