<svg width="66" height="65" viewBox="0 0 66 65" fill="none" xmlns="http://www.w3.org/2000/svg">
<path d="M57.5 42V43.5H59V42H57.5ZM7.5 42H6V43.5H7.5V42ZM9.5 8.5H55.5V5.5H9.5V8.5ZM56 9V42H59V9H56ZM57.5 40.5H7.5V43.5H57.5V40.5ZM9 42V9H6V42H9ZM55.5 8.5C55.7761 8.5 56 8.72386 56 9H59C59 7.067 57.433 5.5 55.5 5.5V8.5ZM9.5 5.5C7.567 5.5 6 7.067 6 9H9C9 8.72386 9.22386 8.5 9.5 8.5V5.5Z" fill="#6366f1"/>
<path d="M17.444 48.364V61H14.366V55.798H9.578V61H6.5V48.364H9.578V53.314H14.366V48.364H17.444Z" fill="#6366f1"/>
<path d="M30.7564 48.364V50.83H27.4084V61H24.3304V50.83H20.9824V48.364H30.7564Z" fill="#6366f1"/>
<path d="M48.6108 48.364V61H45.5328V53.422L42.7068 61H40.2228L37.3788 53.404V61H34.3008V48.364H37.9368L41.4828 57.112L44.9928 48.364H48.6108Z" fill="#6366f1"/>
<path d="M54.9022 58.624H58.9342V61H51.8242V48.364H54.9022V58.624Z" fill="#6366f1"/>
<path d="M17.444 48.364H17.694V48.114H17.444V48.364ZM17.444 61V61.25H17.694V61H17.444ZM14.366 61H14.116V61.25H14.366V61ZM14.366 55.798H14.616V55.548H14.366V55.798ZM9.578 55.798V55.548H9.328V55.798H9.578ZM9.578 61V61.25H9.828V61H9.578ZM6.5 61H6.25V61.25H6.5V61ZM6.5 48.364V48.114H6.25V48.364H6.5ZM9.578 48.364H9.828V48.114H9.578V48.364ZM9.578 53.314H9.328V53.564H9.578V53.314ZM14.366 53.314V53.564H14.616V53.314H14.366ZM14.366 48.364V48.114H14.116V48.364H14.366ZM30.7564 48.364H31.0064V48.114H30.7564V48.364ZM30.7564 50.83V51.08H31.0064V50.83H30.7564ZM27.4084 50.83V50.58H27.1584V50.83H27.4084ZM27.4084 61V61.25H27.6584V61H27.4084ZM24.3304 61H24.0804V61.25H24.3304V61ZM24.3304 50.83H24.5804V50.58H24.3304V50.83ZM20.9824 50.83H20.7324V51.08H20.9824V50.83ZM20.9824 48.364V48.114H20.7324V48.364H20.9824ZM48.6108 48.364H48.8608V48.114H48.6108V48.364ZM48.6108 61V61.25H48.8608V61H48.6108ZM45.5328 61H45.2828V61.25H45.5328V61ZM45.5328 53.422H45.7828L45.2985 53.3347L45.5328 53.422ZM42.7068 61V61.25H42.8804L42.941 61.0874L42.7068 61ZM40.2228 61L39.9887 61.0877L40.0494 61.25H40.2228V61ZM37.3788 53.404L37.6129 53.3164L37.1288 53.404H37.3788ZM37.3788 61V61.25H37.6288V61H37.3788ZM34.3008 61H34.0508V61.25H34.3008V61ZM34.3008 48.364V48.114H34.0508V48.364H34.3008ZM37.9368 48.364L38.1685 48.2701L38.1052 48.114H37.9368V48.364ZM41.4828 57.112L41.2511 57.2059L41.484 57.7804L41.7148 57.2051L41.4828 57.112ZM44.9928 48.364V48.114H44.8237L44.7608 48.2709L44.9928 48.364ZM54.9022 58.624H54.6522V58.874H54.9022V58.624ZM58.9342 58.624H59.1842V58.374H58.9342V58.624ZM58.9342 61V61.25H59.1842V61H58.9342ZM51.8242 61H51.5742V61.25H51.8242V61ZM51.8242 48.364V48.114H51.5742V48.364H51.8242ZM54.9022 48.364H55.1522V48.114H54.9022V48.364ZM17.194 48.364V61H17.694V48.364H17.194ZM17.444 60.75H14.366V61.25H17.444V60.75ZM14.616 61V55.798H14.116V61H14.616ZM14.366 55.548H9.578V56.048H14.366V55.548ZM9.328 55.798V61H9.828V55.798H9.328ZM9.578 60.75H6.5V61.25H9.578V60.75ZM6.75 61V48.364H6.25V61H6.75ZM6.5 48.614H9.578V48.114H6.5V48.614ZM9.328 48.364V53.314H9.828V48.364H9.328ZM9.578 53.564H14.366V53.064H9.578V53.564ZM14.616 53.314V48.364H14.116V53.314H14.616ZM14.366 48.614H17.444V48.114H14.366V48.614ZM30.5064 48.364V50.83H31.0064V48.364H30.5064ZM30.7564 50.58H27.4084V51.08H30.7564V50.58ZM27.1584 50.83V61H27.6584V50.83H27.1584ZM27.4084 60.75H24.3304V61.25H27.4084V60.75ZM24.5804 61V50.83H24.0804V61H24.5804ZM24.3304 50.58H20.9824V51.08H24.3304V50.58ZM21.2324 50.83V48.364H20.7324V50.83H21.2324ZM20.9824 48.614H30.7564V48.114H20.9824V48.614ZM48.3608 48.364V61H48.8608V48.364H48.3608ZM48.6108 60.75H45.5328V61.25H48.6108V60.75ZM45.7828 61V53.422H45.2828V61H45.7828ZM45.2985 53.3347L42.4725 60.9127L42.941 61.0874L45.767 53.5094L45.2985 53.3347ZM42.7068 60.75H40.2228V61.25H42.7068V60.75ZM40.4569 60.9124L37.6129 53.3164L37.1447 53.4917L39.9887 61.0877L40.4569 60.9124ZM37.1288 53.404V61H37.6288V53.404H37.1288ZM37.3788 60.75H34.3008V61.25H37.3788V60.75ZM34.5508 61V48.364H34.0508V61H34.5508ZM34.3008 48.614H37.9368V48.114H34.3008V48.614ZM37.7051 48.4579L41.2511 57.2059L41.7145 57.0181L38.1685 48.2701L37.7051 48.4579ZM41.7148 57.2051L45.2248 48.4571L44.7608 48.2709L41.2508 57.0189L41.7148 57.2051ZM44.9928 48.614H48.6108V48.114H44.9928V48.614ZM54.9022 58.874H58.9342V58.374H54.9022V58.874ZM58.6842 58.624V61H59.1842V58.624H58.6842ZM58.9342 60.75H51.8242V61.25H58.9342V60.75ZM52.0742 61V48.364H51.5742V61H52.0742ZM51.8242 48.614H54.9022V48.114H51.8242V48.614ZM54.6522 48.364V58.624H55.1522V48.364H54.6522Z" fill="white"/>
<path d="M23.5 18L15.5 25L23.5 32" stroke="#6366f1" stroke-width="3"/>
<path d="M41.5 32L49.5 25L41.5 18" stroke="#6366f1" stroke-width="3"/>
<path d="M37 14L27.5 36" stroke="#6366f1" stroke-width="3"/>
</svg>
