<svg width="66" height="65" viewBox="0 0 66 65" fill="none" xmlns="http://www.w3.org/2000/svg">
<path fill-rule="evenodd" clip-rule="evenodd" d="M41 50C41 49.1716 40.3284 48.5 39.5 48.5H11.5C8.73858 48.5 6.5 50.7386 6.5 53.5V55C6.5 56.933 8.06701 58.5 10 58.5H56C57.933 58.5 59.5 56.933 59.5 55V53.5C59.5 50.7386 57.2614 48.5 54.5 48.5H51.5C50.6716 48.5 50 49.1716 50 50C50 50.8284 50.6716 51.5 51.5 51.5H54.5C55.6046 51.5 56.5 52.3954 56.5 53.5V55C56.5 55.2761 56.2761 55.5 56 55.5H10C9.72386 55.5 9.5 55.2761 9.5 55V53.5C9.5 52.3954 10.3954 51.5 11.5 51.5H39.5C40.3284 51.5 41 50.8284 41 50Z" fill="#6366f1"/>
<path fill-rule="evenodd" clip-rule="evenodd" d="M10 6.5C8.067 6.5 6.5 8.067 6.5 10V39.5C6.5 42.2614 8.73858 44.5 11.5 44.5H12.5C13.3284 44.5 14 43.8284 14 43C14 42.1716 13.3284 41.5 12.5 41.5H11.5C10.3954 41.5 9.5 40.6046 9.5 39.5V10C9.5 9.72386 9.72386 9.5 10 9.5H56C56.2761 9.5 56.5 9.72386 56.5 10V39.5C56.5 40.6046 55.6046 41.5 54.5 41.5H24.5C23.6716 41.5 23 42.1716 23 43C23 43.8284 23.6716 44.5 24.5 44.5H54.5C57.2614 44.5 59.5 42.2614 59.5 39.5V10C59.5 8.067 57.933 6.5 56 6.5H10Z" fill="#6366f1"/>
<path fill-rule="evenodd" clip-rule="evenodd" d="M21.8829 18.8589C22.5064 18.3134 23.454 18.3766 23.9996 19C24.5451 19.6235 24.4819 20.5711 23.8585 21.1166L19.1375 25.2474C18.6822 25.6459 18.6822 26.3542 19.1375 26.7526L23.8585 30.8834C24.4819 31.4289 24.5451 32.3766 23.9996 33C23.454 33.6235 22.5064 33.6867 21.8829 33.1411L15.4419 27.5052C14.5312 26.7084 14.5312 25.2917 15.4419 24.4949L21.8829 18.8589Z" fill="#6366f1"/>
<path fill-rule="evenodd" clip-rule="evenodd" d="M43.7408 33.4703C43.3251 33.834 42.6934 33.7919 42.3297 33.3763L41.6712 32.6237C41.3075 32.2081 41.3496 31.5763 41.7653 31.2126L46.8625 26.7526C47.3178 26.3541 47.3178 25.6458 46.8625 25.2474L41.7653 20.7873C41.3496 20.4237 41.3075 19.7919 41.6712 19.3763L42.3297 18.6237C42.6934 18.2081 43.3251 18.1659 43.7408 18.5296L51.4182 25.2474C51.8736 25.6458 51.8736 26.3541 51.4182 26.7526L43.7408 33.4703Z" fill="#6366f1"/>
<path fill-rule="evenodd" clip-rule="evenodd" d="M28.0001 37C27.2396 36.6716 26.8893 35.7888 27.2177 35.0282L35.5284 15.7824C35.8568 15.0219 36.7396 14.6716 37.5001 15C38.2607 15.3284 38.611 16.2112 38.2826 16.9717L29.9719 36.2175C29.6435 36.9781 28.7607 37.3284 28.0001 37Z" fill="#6366f1"/>
</svg>
