<svg width="65" height="65" viewBox="0 0 65 65" fill="none" xmlns="http://www.w3.org/2000/svg">
<path fill-rule="evenodd" clip-rule="evenodd" d="M25 21.5C14.7827 21.5 6.5 29.7827 6.5 40C6.5 50.2173 14.7827 58.5 25 58.5C33.0926 58.5 39.9745 53.3027 42.4844 46.0621C42.7557 45.2793 43.5676 44.7935 44.3699 45C45.1722 45.2065 45.6601 46.0269 45.3978 46.8127C42.5485 55.3469 34.4945 61.5 25 61.5C13.1259 61.5 3.5 51.8741 3.5 40C3.5 28.1259 13.1259 18.5 25 18.5C28.1604 18.5 31.1646 19.1828 33.8702 20.4097C34.6247 20.7518 34.8941 21.6672 34.5 22.3959C34.1059 23.1246 33.1978 23.3897 32.4395 23.0563C30.1643 22.0557 27.6486 21.5 25 21.5Z" fill="#6366f1"/>
<path d="M44.5 17.2101C45.0523 16.2535 46.2755 15.9257 47.2321 16.478L51.5622 18.978C52.5188 19.5303 52.8465 20.7535 52.2942 21.7101L43.2942 37.2985L37.2798 40.3981C36.6328 40.7316 35.8576 40.284 35.8229 39.5569L35.5 32.7985L44.5 17.2101Z" stroke="#6366f1" stroke-width="3"/>
<path d="M49.2402 9.00002L50.5393 9.75002L49.2402 9.00002ZM57.0345 13.5L58.3335 14.25L57.0345 13.5ZM49.7223 12.1651L48.9723 13.4641L49.7223 12.1651ZM48.9723 13.4641L53.3024 15.9641L54.8024 13.366L50.4723 10.866L48.9723 13.4641ZM58.0835 14.683L58.3335 14.25L55.7354 12.75L55.4854 13.183L58.0835 14.683ZM47.9412 8.25002L47.6912 8.68303L50.2893 10.183L50.5393 9.75002L47.9412 8.25002ZM50.5393 9.75002C51.3677 8.31514 53.2025 7.82352 54.6373 8.65194L56.1373 6.05387C53.2676 4.39701 49.5981 5.38026 47.9412 8.25002L50.5393 9.75002ZM58.3335 14.25C59.9904 11.3803 59.0071 7.71072 56.1373 6.05387L54.6373 8.65194C56.0722 9.48037 56.5639 11.3151 55.7354 12.75L58.3335 14.25ZM53.3024 15.9641C54.9764 16.9306 57.117 16.3571 58.0835 14.683L55.4854 13.183C55.3474 13.4222 55.0416 13.5041 54.8024 13.366L53.3024 15.9641ZM50.4723 10.866C50.2331 10.728 50.1512 10.4222 50.2893 10.183L47.6912 8.68303C46.7247 10.3571 47.2983 12.4976 48.9723 13.4641L50.4723 10.866Z" fill="#6366f1"/>
<path d="M15 40C15 45.5228 19.4772 50 25 50C27.4815 50 29.752 49.0961 31.5 47.5996" stroke="#6366f1" stroke-width="3"/>
<path d="M32 31C30.3431 31 29 32.3431 29 34C29 35.4363 30.0094 36.6369 31.3576 36.9311V32L32 31Z" fill="#6366f1"/>
<circle cx="19" cy="34" r="3" fill="#6366f1"/>
</svg>
