<svg width="57" height="46" viewBox="0 0 57 46" fill="none" xmlns="http://www.w3.org/2000/svg">
<path fill-rule="evenodd" clip-rule="evenodd" d="M23.423 4.77481C23.9836 4.81606 24.5357 4.61946 24.9441 4.23314C27.3887 1.92073 30.6775 0.5 34.3 0.5C41.8682 0.5 47.98 6.69286 47.98 14.303C47.98 14.7405 47.9598 15.1735 47.9202 15.601C47.8703 16.1404 48.0413 16.677 48.3941 17.088C49.7065 18.6169 50.5 20.609 50.5 22.7879C50.5 25.5362 49.234 27.9995 47.2452 29.602C46.774 29.9816 46.5 30.5542 46.5 31.1593V35.5C46.5 36.6046 47.3954 37.5 48.5 37.5H55.5C56.3284 37.5 57 38.1716 57 39C57 39.8284 56.3284 40.5 55.5 40.5H45.5C44.3954 40.5 43.5 39.6046 43.5 38.5V33.5C43.5 32.3954 42.6046 31.5 41.5 31.5H15.5C14.3954 31.5 13.5 32.3954 13.5 33.5V38.5C13.5 39.6046 12.6046 40.5 11.5 40.5H1.5C0.671573 40.5 0 39.8284 0 39C0 38.1716 0.671573 37.5 1.5 37.5H8.5C9.60457 37.5 10.5 36.6046 10.5 35.5V31.8741C10.5 31.1875 10.1478 30.5489 9.5671 30.1826C7.11853 28.6379 5.5 25.8944 5.5 22.7879C5.5 19.5222 7.28253 16.6685 9.93507 15.1757C10.4158 14.9051 10.7634 14.4481 10.8957 13.9126C12.1968 8.64895 16.9083 4.74242 22.54 4.74242C22.8369 4.74242 23.1313 4.75335 23.423 4.77481ZM21.25 42.5C21.9404 42.5 22.5 41.9404 22.5 41.25V38.5C22.5 37.6716 23.1716 37 24 37C24.8284 37 25.5 37.6716 25.5 38.5V43.5C25.5 44.6046 24.6046 45.5 23.5 45.5H21.5C20.6716 45.5 20 44.8284 20 44V43.75C20 43.0596 20.5596 42.5 21.25 42.5ZM33.5 45.5C32.3954 45.5 31.5 44.6046 31.5 43.5V38.5C31.5 37.6716 32.1716 37 33 37C33.8284 37 34.5 37.6716 34.5 38.5V41.25C34.5 41.9404 35.0596 42.5 35.75 42.5C36.4404 42.5 37 43.0596 37 43.75V44C37 44.8284 36.3284 45.5 35.5 45.5H33.5ZM34.3 3.5C30.9778 3.5 28.006 5.03328 26.0421 7.45187C25.6815 7.89598 25.0997 8.0963 24.5421 7.96832C23.8993 7.82077 23.2294 7.74242 22.54 7.74242C17.8636 7.74242 13.9944 11.3606 13.5772 16.0134C13.5226 16.6224 13.1038 17.1374 12.5186 17.3149C10.1988 18.0185 8.5 20.1995 8.5 22.7879C8.5 25.9623 11.0448 28.5 14.14 28.5H41.86C44.9552 28.5 47.5 25.9623 47.5 22.7879C47.5 20.9275 46.6236 19.277 45.2634 18.2325C44.7997 17.8765 44.5851 17.2836 44.7135 16.7133C44.8877 15.9398 44.98 15.1332 44.98 14.303C44.98 8.32018 40.1819 3.5 34.3 3.5Z" fill="#6366f1"/>
</svg>
