<svg width="66" height="65" viewBox="0 0 66 65" fill="none" xmlns="http://www.w3.org/2000/svg">
<path d="M46.8712 53.0549C46.3326 54.3127 45.6951 55.4704 44.9564 56.5348C43.9495 57.9859 43.1251 58.9903 42.4897 59.5481C41.5048 60.4636 40.4496 60.9325 39.3196 60.9591C38.5084 60.9591 37.53 60.7258 36.3913 60.2525C35.2487 59.7814 34.1987 59.5481 33.2387 59.5481C32.2318 59.5481 31.1519 59.7814 29.9969 60.2525C28.84 60.7258 27.9081 60.9725 27.1956 60.9969C26.112 61.0436 25.0319 60.5614 23.9538 59.5481C23.2656 58.9414 22.405 57.9014 21.3739 56.4281C20.2676 54.8549 19.3581 53.0305 18.6456 50.9505C17.8825 48.7039 17.5 46.5284 17.5 44.4223C17.5 42.0097 18.0158 39.9289 19.0488 38.1851C19.8607 36.7845 20.9408 35.6797 22.2926 34.8686C23.6444 34.0575 25.1051 33.6442 26.6781 33.6177C27.5388 33.6177 28.6674 33.8868 30.0701 34.4157C31.4687 34.9464 32.3668 35.2155 32.7605 35.2155C33.0549 35.2155 34.0525 34.9008 35.7438 34.2735C37.3432 33.6917 38.693 33.4508 39.7988 33.5457C42.7953 33.7902 45.0465 34.9841 46.5437 37.1352C43.8638 38.7765 42.5381 41.0753 42.5645 44.0243C42.5887 46.3213 43.4131 48.2328 45.0333 49.7506C45.7676 50.455 46.5876 50.9994 47.5 51.3861C47.3021 51.9661 47.0933 52.5216 46.8712 53.0549Z" stroke="#6366f1" stroke-width="3"/>
<path d="M37.1822 28.4031C38.3927 26.9429 39 25.3654 39 23.6759C39 23.4518 38.9897 23.2259 38.9651 23C38.1219 23.0445 37.2253 23.3041 36.2775 23.7737C35.3276 24.2503 34.5442 24.8478 33.9283 25.5664C32.6947 26.9857 32 28.7215 32 30.3435C32 30.5677 32.0142 30.781 32.0386 30.9837C33.9546 31.142 35.7215 30.1389 37.1822 28.4031Z" stroke="#6366f1" stroke-width="2.5"/>
<path fill-rule="evenodd" clip-rule="evenodd" d="M17.412 19L18.1643 16.805H21.7157L22.468 19H27.4158L22.2898 5H17.626L12.5 19H17.412ZM19.5054 12.8949L19.9443 11.5987L20.3884 12.8949H19.5054Z" fill="#6366f1"/>
<path fill-rule="evenodd" clip-rule="evenodd" d="M37.5735 13.8976C38.38 13.4716 39.0141 12.894 39.4333 12.1543L39.4365 12.1485C39.8385 11.4249 40.0364 10.6329 40.0364 9.7873C40.0364 8.88945 39.8355 8.06194 39.4128 7.32733C38.9804 6.57584 38.3366 6.00071 37.5184 5.5964C36.6875 5.18586 35.7102 5 34.6187 5H28.8608V19H33.5161V14.5392H34.6187C35.7377 14.5392 36.7353 14.3403 37.5735 13.8976ZM35.1427 10.3699C35.0616 10.4467 34.8619 10.5583 34.3859 10.5583H33.5161V9.0163H34.3859C34.8619 9.0163 35.0616 9.12795 35.1427 9.20471C35.2336 9.29088 35.3273 9.44624 35.3273 9.7873C35.3273 10.1284 35.2336 10.2837 35.1427 10.3699Z" fill="#6366f1"/>
<path fill-rule="evenodd" clip-rule="evenodd" d="M50.7127 13.8976C51.5192 13.4716 52.1533 12.894 52.5725 12.1543L52.5758 12.1485C52.9778 11.4249 53.1756 10.6329 53.1756 9.7873C53.1756 8.88945 52.9748 8.06194 52.552 7.32733C52.1196 6.57584 51.4759 6.00071 50.6576 5.5964C49.8267 5.18586 48.8494 5 47.758 5H42V19H46.6553V14.5392H47.758C48.8769 14.5392 49.8745 14.3403 50.7127 13.8976ZM48.2819 10.3699C48.2008 10.4467 48.0012 10.5583 47.5251 10.5583H46.6553V9.0163H47.5251C48.0012 9.0163 48.2008 9.12795 48.2819 9.20471C48.3729 9.29088 48.4665 9.44624 48.4665 9.7873C48.4665 10.1284 48.3729 10.2837 48.2819 10.3699Z" fill="#6366f1"/>
<path fill-rule="evenodd" clip-rule="evenodd" d="M17.412 19L18.1643 16.805H21.7157L22.468 19H27.4158L22.2898 5H17.626L12.5 19H17.412ZM19.5054 12.8949L19.9443 11.5987L20.3884 12.8949H19.5054Z" stroke="white" stroke-width="2"/>
<path fill-rule="evenodd" clip-rule="evenodd" d="M37.5735 13.8976C38.38 13.4716 39.0141 12.894 39.4333 12.1543L39.4365 12.1485C39.8385 11.4249 40.0364 10.6329 40.0364 9.7873C40.0364 8.88945 39.8355 8.06194 39.4128 7.32733C38.9804 6.57584 38.3366 6.00071 37.5184 5.5964C36.6875 5.18586 35.7102 5 34.6187 5H28.8608V19H33.5161V14.5392H34.6187C35.7377 14.5392 36.7353 14.3403 37.5735 13.8976ZM35.1427 10.3699C35.0616 10.4467 34.8619 10.5583 34.3859 10.5583H33.5161V9.0163H34.3859C34.8619 9.0163 35.0616 9.12795 35.1427 9.20471C35.2336 9.29088 35.3273 9.44624 35.3273 9.7873C35.3273 10.1284 35.2336 10.2837 35.1427 10.3699Z" stroke="white" stroke-width="2"/>
<path fill-rule="evenodd" clip-rule="evenodd" d="M50.7127 13.8976C51.5192 13.4716 52.1533 12.894 52.5725 12.1543L52.5758 12.1485C52.9778 11.4249 53.1756 10.6329 53.1756 9.7873C53.1756 8.88945 52.9748 8.06194 52.552 7.32733C52.1196 6.57584 51.4759 6.00071 50.6576 5.5964C49.8267 5.18586 48.8494 5 47.758 5H42V19H46.6553V14.5392H47.758C48.8769 14.5392 49.8745 14.3403 50.7127 13.8976ZM48.2819 10.3699C48.2008 10.4467 48.0012 10.5583 47.5251 10.5583H46.6553V9.0163H47.5251C48.0012 9.0163 48.2008 9.12795 48.2819 9.20471C48.3729 9.29088 48.4665 9.44624 48.4665 9.7873C48.4665 10.1284 48.3729 10.2837 48.2819 10.3699Z" stroke="white" stroke-width="2"/>
</svg>
