<svg width="66" height="65" viewBox="0 0 66 65" fill="none" xmlns="http://www.w3.org/2000/svg">
<path fill-rule="evenodd" clip-rule="evenodd" d="M25 52C25 52.8284 24.3284 53.5 23.5 53.5H7C6.17157 53.5 5.5 52.8284 5.5 52C5.5 51.1716 6.17157 50.5 7 50.5H23.5C24.3284 50.5 25 51.1716 25 52ZM60.5 52C60.5 52.8284 59.8284 53.5 59 53.5H43C42.1716 53.5 41.5 52.8284 41.5 52C41.5 51.1716 42.1716 50.5 43 50.5H59C59.8284 50.5 60.5 51.1716 60.5 52Z" fill="#6366f1"/>
<path fill-rule="evenodd" clip-rule="evenodd" d="M33.5 44C32.6716 44 32 43.3284 32 42.5L32 39.5C32 38.6716 32.6716 38 33.5 38C34.3284 38 35 38.6716 35 39.5L35 42.5C35 43.3284 34.3284 44 33.5 44Z" fill="#6366f1"/>
<path fill-rule="evenodd" clip-rule="evenodd" d="M33.5 45.5C29.9101 45.5 27 48.4101 27 52C27 55.5899 29.9101 58.5 33.5 58.5C37.0899 58.5 40 55.5899 40 52C40 48.4101 37.0899 45.5 33.5 45.5ZM24 52C24 46.7533 28.2533 42.5 33.5 42.5C38.7467 42.5 43 46.7533 43 52C43 57.2467 38.7467 61.5 33.5 61.5C28.2533 61.5 24 57.2467 24 52Z" fill="#6366f1"/>
<path fill-rule="evenodd" clip-rule="evenodd" d="M47.5 26C47.5 26.8284 46.8284 27.5 46 27.5H21C20.1716 27.5 19.5 26.8284 19.5 26C19.5 25.1716 20.1716 24.5 21 24.5H46C46.8284 24.5 47.5 25.1716 47.5 26Z" fill="#6366f1"/>
<path fill-rule="evenodd" clip-rule="evenodd" d="M16.5 4.5C14.567 4.5 13 6.067 13 8V32C13 33.933 14.567 35.5 16.5 35.5H20.5C21.3284 35.5 22 34.8284 22 34C22 33.1716 21.3284 32.5 20.5 32.5H16.5C16.2239 32.5 16 32.2761 16 32V8C16 7.72386 16.2239 7.5 16.5 7.5H50.5C50.7761 7.5 51 7.72386 51 8V32C51 32.2761 50.7761 32.5 50.5 32.5H30.5C29.6716 32.5 29 33.1716 29 34C29 34.8284 29.6716 35.5 30.5 35.5H50.5C52.433 35.5 54 33.933 54 32V8C54 6.067 52.433 4.5 50.5 4.5H16.5Z" fill="#6366f1"/>
</svg>
