<svg width="97" height="70" viewBox="0 0 97 70" fill="none" xmlns="http://www.w3.org/2000/svg">
<path d="M32.3618 39.8639C24.1685 39.8639 17.4756 33.2307 17.4756 25.144C17.4756 17.0574 24.1685 10.4242 32.3618 10.4242C40.555 10.4242 47.2479 17.0574 47.2479 25.144C47.2479 33.2331 40.6307 39.8639 32.3618 39.8639ZM32.3618 16.6591C27.6552 16.6591 23.7937 20.4681 23.7937 25.144C23.7937 29.82 27.6552 33.629 32.3618 33.629C37.0683 33.629 40.9298 29.82 40.9298 25.144C40.9298 20.4729 37.1514 16.6591 32.3618 16.6591Z" fill="#6366f1" stroke="white" stroke-width="1.5"/>
<path d="M15.9702 42.4871C17.2665 41.686 18.9904 42.1809 19.8101 43.592C20.7147 45.1493 20.0937 47.237 18.4712 48.3344C12.8302 52.1497 8.79932 58.1165 7.59262 65.0443C7.27564 66.8642 5.82137 68.2566 4.11658 68.2566C2.32434 68.2566 0.962344 66.8046 1.18562 65.1551C2.47792 55.6074 8.05966 47.3763 15.9702 42.4871Z" fill="#6366f1" stroke="white" stroke-width="1.5"/>
<path d="M46.1598 43.6025C46.9818 42.1874 48.7119 41.6937 50.0094 42.5011C57.8708 47.3932 63.4866 55.6191 64.7882 65.1561C65.0131 66.8045 63.6519 68.2566 61.8594 68.2566C60.1547 68.2566 58.6999 66.864 58.3796 65.0435C57.1612 58.1179 53.0971 52.1554 47.4892 48.3412C45.8727 47.2418 45.2564 45.1576 46.1598 43.6025Z" fill="#6366f1" stroke="white" stroke-width="1.5"/>
<path d="M94.6072 21.5893C94.6072 32.3415 85.67 41.1376 74.5458 41.1376C63.4215 41.1376 54.4844 32.3415 54.4844 21.5893C54.4844 10.8372 63.4215 2.04095 74.5458 2.04095C85.67 2.04095 94.6072 10.8372 94.6072 21.5893Z" stroke="#6366f1" stroke-width="4"/>
<path d="M75.2207 16.8985L70.5006 13.0872L75.2207 9.27597V10.9055C81.0779 11.3878 85.6724 16.0198 85.6724 21.6626C85.6724 25.3877 83.6681 28.671 80.6309 30.6087L77.9841 26.9271C79.78 25.7813 80.9522 23.8505 80.9522 21.6626C80.9522 18.4783 78.4649 15.8412 75.2207 15.3815V16.8985Z" fill="#6366f1"/>
<path d="M73.1978 26.4267L77.9179 30.238L73.1978 34.0492V32.4198C67.3406 31.9374 62.7461 27.3054 62.7461 21.6626C62.7461 18.1283 64.551 14.9904 67.33 13.0241L70.1648 16.5793C68.5216 17.742 67.4662 19.5859 67.4662 21.6626C67.4662 24.8469 69.9535 27.484 73.1978 27.9437V26.4267Z" fill="#6366f1"/>
<path d="M86.3467 15.9457V11.4992M77.2436 35.9549H72.5235M70.5006 13.0872L75.2207 16.8985V15.3815C78.4649 15.8412 80.9522 18.4783 80.9522 21.6626C80.9522 23.8505 79.78 25.7813 77.9841 26.9271L80.6309 30.6087C83.6681 28.671 85.6724 25.3877 85.6724 21.6626C85.6724 16.0198 81.0779 11.3878 75.2207 10.9055V9.27597L70.5006 13.0872ZM77.9179 30.238L73.1978 26.4267V27.9437C69.9535 27.484 67.4662 24.8469 67.4662 21.6626C67.4662 19.5859 68.5216 17.742 70.1648 16.5793L67.33 13.0241C64.551 14.9904 62.7461 18.1283 62.7461 21.6626C62.7461 27.3054 67.3406 31.9374 73.1978 32.4198V34.0492L77.9179 30.238Z" stroke="white" stroke-width="0.5"/>
</svg>
