<svg width="97" height="71" viewBox="0 0 97 71" fill="none" xmlns="http://www.w3.org/2000/svg">
<path d="M32.391 39.865C24.1978 39.865 17.5049 33.2318 17.5049 25.1452C17.5049 17.0585 24.1978 10.4253 32.391 10.4253C40.5843 10.4253 47.2772 17.0585 47.2772 25.1452C47.2772 33.2342 40.66 39.865 32.391 39.865ZM32.391 16.6602C27.6845 16.6602 23.823 20.4692 23.823 25.1452C23.823 29.8211 27.6845 33.6301 32.391 33.6301C37.0976 33.6301 40.9591 29.8211 40.9591 25.1452C40.9591 20.4741 37.1807 16.6602 32.391 16.6602Z" fill="#6366f1" stroke="white" stroke-width="1.5"/>
<path d="M15.9995 43.4883C17.2958 42.6872 19.0197 43.182 19.8394 44.5931C20.744 46.1505 20.123 48.2382 18.5005 49.3355C12.8595 53.1508 8.82862 59.1176 7.62192 66.0454C7.30493 67.8653 5.85067 69.2578 4.14588 69.2578C2.35364 69.2578 0.991641 67.8058 1.21491 66.1562C2.50722 56.6085 8.08896 48.3775 15.9995 43.4883Z" fill="#6366f1" stroke="white" stroke-width="1.5"/>
<path d="M46.1891 44.6037C47.0111 43.1886 48.7412 42.6948 50.0386 43.5022C57.9001 48.3944 63.5159 56.6202 64.8175 66.1572C65.0424 67.8057 63.6812 69.2578 61.8887 69.2578C60.184 69.2578 58.7292 67.8651 58.4089 66.0446C57.1905 59.1191 53.1264 53.1565 47.5185 49.3424C45.902 48.2429 45.2857 46.1588 46.1891 44.6037Z" fill="#6366f1" stroke="white" stroke-width="1.5"/>
<path d="M32.6256 37.6759L32.2347 36.3607L31.8438 37.6759C32.0783 37.6759 32.2347 37.6759 32.4692 37.6759C32.4692 37.7533 32.5474 37.6759 32.6256 37.6759Z" fill="#6366f1"/>
<path d="M94.6355 21.5752C94.6355 32.3274 85.6983 41.1236 74.5741 41.1236C63.4499 41.1236 54.5127 32.3274 54.5127 21.5752C54.5127 10.8231 63.4499 2.02686 74.5741 2.02686C85.6983 2.02686 94.6355 10.8231 94.6355 21.5752Z" stroke="#6366f1" stroke-width="4"/>
<path fill-rule="evenodd" clip-rule="evenodd" d="M70.9607 8.20975C65.8722 8.20975 61.7471 12.3348 61.7471 17.4234C61.7471 22.5119 65.8722 26.637 70.9607 26.637C76.0493 26.637 80.1744 22.5119 80.1744 17.4234C80.1744 12.3348 76.0493 8.20975 70.9607 8.20975ZM65.4257 17.4234C65.4257 14.3665 67.9038 11.8884 70.9607 11.8884C74.0176 11.8884 76.4957 14.3665 76.4957 17.4234C76.4957 20.4803 74.0176 22.9584 70.9607 22.9584C67.9038 22.9584 65.4257 20.4803 65.4257 17.4234Z" fill="#6366f1"/>
<path d="M75.8847 27.6721L80.483 34.1097L83.4764 31.9716L78.8781 25.5339L75.8847 27.6721Z" fill="#6366f1"/>
</svg>
