<svg width="65" height="66" viewBox="0 0 65 66" fill="none" xmlns="http://www.w3.org/2000/svg">
<path d="M21.0493 7.44739H52.9738V11.8354M21.0493 7.44739L6.73828 21.7584M21.0493 7.44739V21.7584H6.73828M6.73828 21.7584V59.1872H26.0031" stroke="#6366f1" stroke-width="3"/>
<path d="M24.3522 48.1787H13.3438" stroke="#6366f1" stroke-width="3"/>
<path d="M27.6548 40.4728H13.3438" stroke="#6366f1" stroke-width="3"/>
<path d="M32.0581 32.7668H13.3438" stroke="#6366f1" stroke-width="3"/>
<path d="M43.6162 28.8896L52.1965 33.8434L41.188 52.9106L33.0449 57.1072L32.6077 47.9568L43.6162 28.8896Z" stroke="#6366f1" stroke-width="3"/>
<path d="M47.4697 22.2161L46.1707 21.4661L45.4207 22.7652L46.7197 23.5152L47.4697 22.2161ZM56.05 27.17L55.3 28.469L56.599 29.219L57.349 27.92L56.05 27.17ZM48.8458 19.8327L50.1448 20.5827L48.8458 19.8327ZM57.426 24.7866L58.7251 25.5366L57.426 24.7866ZM46.7197 23.5152L55.3 28.469L56.8 25.8709L48.2197 20.9171L46.7197 23.5152ZM57.349 27.92L58.7251 25.5366L56.127 24.0366L54.7509 26.42L57.349 27.92ZM47.5467 19.0827L46.1707 21.4661L48.7688 22.9661L50.1448 20.5827L47.5467 19.0827ZM50.1448 20.5827C51.0986 18.9308 53.2109 18.3648 54.8628 19.3186L56.3628 16.7205C53.276 14.9383 49.3289 15.9959 47.5467 19.0827L50.1448 20.5827ZM58.7251 25.5366C60.5072 22.4497 59.4496 18.5027 56.3628 16.7205L54.8628 19.3186C56.5147 20.2723 57.0807 22.3846 56.127 24.0366L58.7251 25.5366Z" fill="#6366f1"/>
</svg>
