<svg width="65" height="65" viewBox="0 0 65 65" fill="none" xmlns="http://www.w3.org/2000/svg">
<path d="M34 28V9H60V27.2581H41.354H41.2182L41.1011 27.3268L37.0118 29.7252C36.3934 30.0879 35.6281 30.0918 35.0059 29.7355C34.3838 29.3791 34 28.717 34 28ZM38.5 13H38V13.5V23.6355V24.5084L38.753 24.0667L40.1318 23.2581H55.5H56V22.7581V13.5V13H55.5H38.5Z" fill="#6366f1" stroke="white"/>
<path d="M44 16.5H40V19.5H44V16.5Z" fill="#6366f1"/>
<path d="M49 16.5H45V19.5H49V16.5Z" fill="#6366f1"/>
<path d="M54 16.5H50V19.5H54V16.5Z" fill="#6366f1"/>
<path d="M50 46V47.5H51.5V46H50ZM17 8.5H30V5.5H17V8.5ZM51.5 46V25.5H48.5V46H51.5ZM50 44.5H35V47.5H50V44.5ZM16.5 32V9H13.5V32H16.5ZM17 5.5C15.067 5.5 13.5 7.067 13.5 9H16.5C16.5 8.72386 16.7239 8.5 17 8.5V5.5Z" fill="#6366f1"/>
<path d="M48 56.5L17 56.5L17 59.5L48 59.5L48 56.5ZM16.5 56L16.5 52L13.5 52L13.5 56L16.5 56ZM48.5 44L48.5 56L51.5 56L51.5 44L48.5 44ZM17 56.5C16.7239 56.5 16.5 56.2761 16.5 56L13.5 56C13.5 57.933 15.067 59.5 17 59.5L17 56.5ZM48 59.5C49.933 59.5 51.5 57.933 51.5 56L48.5 56C48.5 56.2761 48.2761 56.5 48 56.5L48 59.5Z" fill="#6366f1"/>
<path d="M31 49.5V30.5H5V48.7581H23.646H23.7818L23.8989 48.8268L27.9882 51.2252C28.6066 51.5879 29.3719 51.5918 29.9941 51.2355C30.6162 50.8791 31 50.217 31 49.5ZM26.5 34.5H27V35V45.1355V46.0084L26.247 45.5667L24.8682 44.7581H9.5H9V44.2581V35V34.5H9.5H26.5Z" fill="#6366f1" stroke="white"/>
<path d="M15 38.5H11V41.5H15V38.5Z" fill="#6366f1"/>
<path d="M20 38.5H16V41.5H20V38.5Z" fill="#6366f1"/>
<path d="M25 38.5H21V41.5H25V38.5Z" fill="#6366f1"/>
</svg>
