<svg width="106" height="70" viewBox="0 0 106 70" fill="none" xmlns="http://www.w3.org/2000/svg">
<path d="M32.2993 39.4667C24.106 39.4667 17.4131 32.8335 17.4131 24.7468C17.4131 16.6602 24.106 10.027 32.2993 10.027C40.4925 10.027 47.1854 16.6602 47.1854 24.7468C47.1854 32.8359 40.5682 39.4667 32.2993 39.4667ZM32.2993 16.2619C27.5927 16.2619 23.7312 20.0709 23.7312 24.7468C23.7312 29.4228 27.5927 33.2317 32.2993 33.2317C37.0058 33.2317 40.8673 29.4228 40.8673 24.7468C40.8673 20.0757 37.0889 16.2619 32.2993 16.2619Z" fill="#6366f1" stroke="white" stroke-width="1.5"/>
<path d="M15.9077 43.0899C17.204 42.2888 18.9279 42.7837 19.7476 44.1948C20.6522 45.7521 20.0312 47.8398 18.4087 48.9372C12.7677 52.7525 8.73682 58.7192 7.53012 65.6471C7.21314 67.467 5.75887 68.8594 4.05408 68.8594C2.26184 68.8594 0.899844 67.4074 1.12312 65.7579C2.41542 56.2102 7.99716 47.9791 15.9077 43.0899Z" fill="#6366f1" stroke="white" stroke-width="1.5"/>
<path d="M46.0973 44.2053C46.9193 42.7902 48.6494 42.2965 49.9469 43.1039C57.8083 47.996 63.4241 56.2219 64.7257 65.7589C64.9506 67.4073 63.5894 68.8594 61.7969 68.8594C60.0922 68.8594 58.6374 67.4668 58.3171 65.6463C57.0987 58.7207 53.0346 52.7582 47.4267 48.944C45.8102 47.8446 45.1939 45.7604 46.0973 44.2053Z" fill="#6366f1" stroke="white" stroke-width="1.5"/>
<path d="M32.5338 37.2775L32.1429 35.9624L31.752 37.2775C31.9865 37.2775 32.1429 37.2775 32.3774 37.2775C32.3774 37.3549 32.4556 37.2775 32.5338 37.2775Z" fill="#6366f1"/>
<path d="M103.779 21.5751C103.779 32.3273 94.8419 41.1235 83.7177 41.1235C72.5934 41.1235 63.6562 32.3273 63.6562 21.5751C63.6562 10.823 72.5934 2.02679 83.7177 2.02679C94.8419 2.02679 103.779 10.823 103.779 21.5751Z" stroke="#6366f1" stroke-width="4"/>
<path fill-rule="evenodd" clip-rule="evenodd" d="M72.9424 18.9902L75.5622 18.5536C75.721 18.0367 75.9277 17.5406 76.1769 17.0707L74.6327 14.9088L77.5629 11.9786L79.7246 13.5227C80.1946 13.2733 80.6907 13.0666 81.2078 12.9077L81.6444 10.288H85.7883L86.2248 12.9073C86.7421 13.0662 87.2384 13.273 87.7086 13.5224L89.87 11.9785L92.8002 14.9087L91.2565 17.07C91.5059 17.5402 91.7127 18.0365 91.8716 18.5537L94.4907 18.9903V20.5491H87.7249C87.4728 18.56 85.7745 17.0219 83.7169 17.0219C81.6593 17.0219 79.9609 18.56 79.7088 20.5491H72.9424V18.9902Z" fill="#6366f1"/>
<path d="M75.5622 18.5536L75.6444 19.0468L75.9493 18.996L76.0401 18.7004L75.5622 18.5536ZM72.9424 18.9902L72.8602 18.497L72.4424 18.5667V18.9902H72.9424ZM76.1769 17.0707L76.6186 17.305L76.7636 17.0318L76.5838 16.7801L76.1769 17.0707ZM74.6327 14.9088L74.2791 14.5552L73.9796 14.8547L74.2258 15.1994L74.6327 14.9088ZM77.5629 11.9786L77.8535 11.5717L77.5088 11.3255L77.2093 11.625L77.5629 11.9786ZM79.7246 13.5227L79.434 13.9295L79.6857 14.1093L79.959 13.9643L79.7246 13.5227ZM81.2078 12.9077L81.3546 13.3856L81.6501 13.2948L81.701 12.9899L81.2078 12.9077ZM81.6444 10.288V9.78802H81.2208L81.1512 10.2058L81.6444 10.288ZM85.7883 10.288L86.2815 10.2058L86.2118 9.78802H85.7883V10.288ZM86.2248 12.9073L85.7316 12.9895L85.7825 13.2945L86.078 13.3853L86.2248 12.9073ZM87.7086 13.5224L87.4743 13.9641L87.7476 14.1091L87.9993 13.9293L87.7086 13.5224ZM89.87 11.9785L90.2236 11.625L89.9241 11.3255L89.5794 11.5717L89.87 11.9785ZM92.8002 14.9087L93.2071 15.1994L93.4533 14.8547L93.1538 14.5552L92.8002 14.9087ZM91.2565 17.07L90.8496 16.7794L90.6698 17.0311L90.8148 17.3044L91.2565 17.07ZM91.8716 18.5537L91.3937 18.7006L91.4845 18.9961L91.7894 19.0469L91.8716 18.5537ZM94.4907 18.9903H94.9907V18.5667L94.5729 18.4971L94.4907 18.9903ZM94.4907 20.5491V21.0491H94.9907V20.5491H94.4907ZM87.7249 20.5491L87.2289 20.612L87.2843 21.0491H87.7249V20.5491ZM79.7088 20.5491V21.0491H80.1495L80.2049 20.612L79.7088 20.5491ZM72.9424 20.5491H72.4424V21.0491H72.9424V20.5491ZM75.48 18.0604L72.8602 18.497L73.0246 19.4834L75.6444 19.0468L75.48 18.0604ZM75.7352 16.8364C75.4713 17.334 75.2525 17.8592 75.0842 18.4067L76.0401 18.7004C76.1896 18.2141 76.384 17.7473 76.6186 17.305L75.7352 16.8364ZM74.2258 15.1994L75.7701 17.3613L76.5838 16.7801L75.0396 14.6181L74.2258 15.1994ZM77.2093 11.625L74.2791 14.5552L74.9862 15.2623L77.9164 12.3321L77.2093 11.625ZM80.0152 13.1158L77.8535 11.5717L77.2723 12.3854L79.434 13.9295L80.0152 13.1158ZM81.0609 12.4297C80.5133 12.598 79.9879 12.8169 79.4903 13.081L79.959 13.9643C80.4013 13.7296 80.8682 13.5351 81.3546 13.3856L81.0609 12.4297ZM81.1512 10.2058L80.7146 12.8255L81.701 12.9899L82.1376 10.3702L81.1512 10.2058ZM85.7883 9.78802H81.6444V10.788H85.7883V9.78802ZM86.718 12.8251L86.2815 10.2058L85.2951 10.3702L85.7316 12.9895L86.718 12.8251ZM87.943 13.0807C87.4451 12.8166 86.9195 12.5976 86.3716 12.4293L86.078 13.3853C86.5647 13.5348 87.0318 13.7293 87.4743 13.9641L87.943 13.0807ZM89.5794 11.5717L87.418 13.1155L87.9993 13.9293L90.1607 12.3854L89.5794 11.5717ZM93.1538 14.5552L90.2236 11.625L89.5165 12.3321L92.4467 15.2623L93.1538 14.5552ZM91.6633 17.3607L93.2071 15.1994L92.3933 14.6181L90.8496 16.7794L91.6633 17.3607ZM92.3496 18.4069C92.1812 17.8591 91.9623 17.3335 91.6981 16.8357L90.8148 17.3044C91.0496 17.7469 91.2441 18.2139 91.3937 18.7006L92.3496 18.4069ZM94.5729 18.4971L91.9538 18.0605L91.7894 19.0469L94.4085 19.4835L94.5729 18.4971ZM94.9907 20.5491V18.9903H93.9907V20.5491H94.9907ZM87.7249 21.0491H94.4907V20.0491H87.7249V21.0491ZM83.7169 17.5219C85.5195 17.5219 87.0081 18.8695 87.2289 20.612L88.221 20.4862C87.9376 18.2504 86.0295 16.5219 83.7169 16.5219V17.5219ZM80.2049 20.612C80.4257 18.8695 81.9143 17.5219 83.7169 17.5219V16.5219C81.4043 16.5219 79.4961 18.2504 79.2128 20.4862L80.2049 20.612ZM72.9424 21.0491H79.7088V20.0491H72.9424V21.0491ZM72.4424 18.9902V20.5491H73.4424V18.9902H72.4424Z" fill="white"/>
<path fill-rule="evenodd" clip-rule="evenodd" d="M70.8916 21.6274H96.5444V30.8624H70.8916V21.6274ZM74.996 25.7319V26.758H92.44V25.7319H74.996Z" fill="#6366f1" stroke="white" stroke-width="1.3"/>
<path fill-rule="evenodd" clip-rule="evenodd" d="M70.8916 21.6274H89.3616V30.8624H70.8916V21.6274ZM74.996 25.7319V26.758H85.2572V25.7319H74.996Z" fill="#6366f1" stroke="white" stroke-width="1.3"/>
</svg>
