<svg width="65" height="66" viewBox="0 0 65 66" fill="none" xmlns="http://www.w3.org/2000/svg">
<path d="M7.09082 12.8354V11.3354H5.59082V12.8354H7.09082ZM51.0908 12.8354H52.5908V11.3354H51.0908V12.8354ZM7.09082 57.8354H5.59082V59.3354H7.09082V57.8354ZM8.59082 57.8354V12.8354H5.59082V57.8354H8.59082ZM34.3708 56.3354H7.09082V59.3354H34.3708V56.3354ZM49.5908 12.8354V21.8354H52.5908V12.8354H49.5908ZM7.09082 14.3354H16.0908V11.3354H7.09082V14.3354ZM42.0908 14.3354H51.0908V11.3354H42.0908V14.3354Z" fill="#6366f1"/>
<path d="M13.0908 28.253L17.6036 32.6047L25.7831 25.8354" stroke="#6366f1" stroke-width="3" stroke-miterlimit="10"/>
<path d="M13.0908 43.253L17.6036 47.6047L25.7831 40.8354" stroke="#6366f1" stroke-width="3" stroke-miterlimit="10"/>
<path d="M42.0908 7.83545L43.5908 7.83545L43.5908 6.33545L42.0908 6.33545L42.0908 7.83545ZM16.0908 7.83545L16.0908 6.33545L14.5908 6.33545L14.5908 7.83545L16.0908 7.83545ZM40.0908 16.3354L18.0908 16.3354L18.0908 19.3354L40.0908 19.3354L40.0908 16.3354ZM40.5908 7.83545L40.5908 15.8354L43.5908 15.8354L43.5908 7.83545L40.5908 7.83545ZM16.0908 9.33545L42.0908 9.33545L42.0908 6.33545L16.0908 6.33545L16.0908 9.33545ZM17.5908 15.8354L17.5908 7.83545L14.5908 7.83545L14.5908 15.8354L17.5908 15.8354ZM18.0908 16.3354C17.8147 16.3354 17.5908 16.1116 17.5908 15.8354L14.5908 15.8354C14.5908 17.7684 16.1578 19.3354 18.0908 19.3354L18.0908 16.3354ZM40.0908 19.3354C42.0238 19.3354 43.5908 17.7684 43.5908 15.8354L40.5908 15.8354C40.5908 16.1116 40.367 16.3354 40.0908 16.3354L40.0908 19.3354Z" fill="#6366f1"/>
<path d="M55.4851 32.8375L54.1861 33.5875L55.4851 32.8375ZM51.0928 49.2298L51.8428 50.5288L51.0928 49.2298ZM34.7005 44.8375L33.4015 45.5875L34.7005 44.8375ZM39.0928 28.4451L39.8428 29.7442L39.0928 28.4451ZM54.1861 33.5875C57.0856 38.6095 55.3649 45.0312 50.3428 47.9307L51.8428 50.5288C58.2998 46.8009 60.5121 38.5444 56.7842 32.0875L54.1861 33.5875ZM50.3428 47.9307C45.3208 50.8302 38.8991 49.1095 35.9996 44.0875L33.4015 45.5875C37.1294 52.0444 45.3859 54.2567 51.8428 50.5288L50.3428 47.9307ZM35.9996 44.0875C33.1001 39.0654 34.8208 32.6437 39.8428 29.7442L38.3428 27.1461C31.8859 30.874 29.6736 39.1305 33.4015 45.5875L35.9996 44.0875ZM39.8428 29.7442C44.8649 26.8447 51.2866 28.5654 54.1861 33.5875L56.7842 32.0875C53.0562 25.6305 44.7998 23.4182 38.3428 27.1461L39.8428 29.7442Z" fill="#6366f1"/>
<path d="M50.7928 49.9796L57.0428 60.8049L59.6408 59.3049L53.3908 48.4796L50.7928 49.9796Z" fill="#6366f1"/>
</svg>
