<svg width="66" height="65" viewBox="0 0 66 65" fill="none" xmlns="http://www.w3.org/2000/svg">
<path fill-rule="evenodd" clip-rule="evenodd" d="M19.5 58C19.5 56.067 21.067 54.5 23 54.5H44C45.933 54.5 47.5 56.067 47.5 58V58.5C47.5 59.3284 46.8284 60 46 60C45.1716 60 44.5 59.3284 44.5 58.5V58C44.5 57.7239 44.2761 57.5 44 57.5H23C22.7239 57.5 22.5 57.7239 22.5 58V58.5C22.5 59.3284 21.8284 60 21 60C20.1716 60 19.5 59.3284 19.5 58.5V58Z" fill="#6366f1"/>
<path d="M33.5 17V27.5H36.5V17H33.5ZM25.5 27.5V17H22.5V27.5H25.5ZM29.5 31.5C27.2909 31.5 25.5 29.7091 25.5 27.5H22.5C22.5 31.366 25.634 34.5 29.5 34.5V31.5ZM33.5 27.5C33.5 29.7091 31.7091 31.5 29.5 31.5V34.5C33.366 34.5 36.5 31.366 36.5 27.5H33.5Z" fill="#6366f1"/>
<path d="M44.5 34.5V17H41.5V34.5H44.5Z" fill="#6366f1"/>
<path fill-rule="evenodd" clip-rule="evenodd" d="M9.5 13C9.5 12.7239 9.72386 12.5 10 12.5H57C57.2761 12.5 57.5 12.7239 57.5 13V38.5H16.5C15.6716 38.5 15 39.1716 15 40C15 40.8284 15.6716 41.5 16.5 41.5H60.5V13C60.5 11.067 58.933 9.5 57 9.5H10C8.067 9.5 6.5 11.067 6.5 13V41.5H9.5V38.5V13Z" fill="#6366f1"/>
<path fill-rule="evenodd" clip-rule="evenodd" d="M57 50.5C58.933 50.5 60.5 48.933 60.5 47V40L57.5 40V47C57.5 47.2761 57.2761 47.5 57 47.5L20.5 47.5C19.6716 47.5 19 48.1716 19 49C19 49.8284 19.6716 50.5 20.5 50.5L57 50.5ZM11.5026 50.572C12.33 50.5314 13 49.8284 13 49C13 48.1716 12.333 47.5879 11.5051 47.6181C10.5517 47.653 9.5 47.5712 9.5 47L9.5 40H6.5V47C6.5 50.5562 9.35217 50.6775 11.5026 50.572Z" fill="#6366f1"/>
</svg>
