<svg width="66" height="65" viewBox="0 0 66 65" fill="none" xmlns="http://www.w3.org/2000/svg">
<path d="M33.5 18V29.5H36.5V18H33.5ZM25.5 29.5V18H22.5V29.5H25.5ZM29.5 33.5C27.2909 33.5 25.5 31.7091 25.5 29.5H22.5C22.5 33.366 25.634 36.5 29.5 36.5V33.5ZM33.5 29.5C33.5 31.7091 31.7091 33.5 29.5 33.5V36.5C33.366 36.5 36.5 33.366 36.5 29.5H33.5Z" fill="#6366f1"/>
<path d="M44.5 36V18H41.5V36H44.5Z" fill="#6366f1"/>
<path fill-rule="evenodd" clip-rule="evenodd" d="M23 49C23 48.1716 23.6716 47.5 24.5 47.5H41.5C42.3284 47.5 43 48.1716 43 49C43 49.8284 42.3284 50.5 41.5 50.5H24.5C23.6716 50.5 23 49.8284 23 49Z" fill="#6366f1"/>
<path fill-rule="evenodd" clip-rule="evenodd" d="M17.5 9C17.5 8.72386 17.7239 8.5 18 8.5H49C49.2761 8.5 49.5 8.72386 49.5 9V56C49.5 56.2761 49.2761 56.5 49 56.5H30.5C29.6716 56.5 29 57.1716 29 58C29 58.8284 29.6716 59.5 30.5 59.5H49C50.933 59.5 52.5 57.933 52.5 56V9C52.5 7.067 50.933 5.5 49 5.5H18C16.067 5.5 14.5 7.067 14.5 9V56C14.5 57.933 16.067 59.5 18 59.5H18.5C19.3284 59.5 20 58.8284 20 58C20 57.1716 19.3284 56.5 18.5 56.5H18C17.7239 56.5 17.5 56.2761 17.5 56V9Z" fill="#6366f1"/>
</svg>
