<svg width="65" height="65" viewBox="0 0 65 65" fill="none" xmlns="http://www.w3.org/2000/svg">
<path fill-rule="evenodd" clip-rule="evenodd" d="M6.5 10.5C6.5 7.73858 8.73858 5.5 11.5 5.5H48.5C51.2614 5.5 53.5 7.73858 53.5 10.5V17.5C53.5 18.3284 52.8284 19 52 19C51.1716 19 50.5 18.3284 50.5 17.5V13.5C50.5 10.7386 48.2614 8.5 45.5 8.5H14.5C11.7386 8.5 9.5 10.7386 9.5 13.5V50.5C9.5 53.2614 11.7386 55.5 14.5 55.5H43.5C44.3284 55.5 45 56.1716 45 57C45 57.8284 44.3284 58.5 43.5 58.5H11.5C8.73858 58.5 6.5 56.2614 6.5 53.5V10.5Z" fill="#6366f1"/>
<path fill-rule="evenodd" clip-rule="evenodd" d="M14.5 34.5C14.5 31.7386 16.7386 29.5 19.5 29.5C22.2614 29.5 24.5 31.7386 24.5 34.5V45.5C24.5 48.2614 22.2614 50.5 19.5 50.5C16.7386 50.5 14.5 48.2614 14.5 45.5V34.5ZM19.5 32.5C18.3954 32.5 17.5 33.3954 17.5 34.5V45.5C17.5 46.6046 18.3954 47.5 19.5 47.5C20.6046 47.5 21.5 46.6046 21.5 45.5V34.5C21.5 33.3954 20.6046 32.5 19.5 32.5Z" fill="#6366f1"/>
<path fill-rule="evenodd" clip-rule="evenodd" d="M14.5 18C14.5 15.5147 16.5147 13.5 19 13.5H42.75C44.2688 13.5 45.5 14.7312 45.5 16.25V17.5C45.5 18.3284 44.8284 19 44 19H43.75C43.0596 19 42.5 18.4404 42.5 17.75C42.5 17.0596 41.9404 16.5 41.25 16.5H19C18.1716 16.5 17.5 17.1716 17.5 18C17.5 18.8284 18.1716 19.5 19 19.5H24C24.8284 19.5 25.5 20.1716 25.5 21C25.5 21.8284 24.8284 22.5 24 22.5H19C16.5147 22.5 14.5 20.4853 14.5 18Z" fill="#6366f1"/>
<path fill-rule="evenodd" clip-rule="evenodd" d="M53.4852 31.1423C50.5857 26.1203 44.164 24.3996 39.1419 27.2991C34.1198 30.1986 32.3991 36.6203 35.2986 41.6423C38.1981 46.6644 44.6198 48.3851 49.6419 45.4856C54.664 42.5861 56.3847 36.1644 53.4852 31.1423ZM37.6419 24.701C44.0989 20.9731 52.3553 23.1854 56.0832 29.6423C59.8112 36.0993 57.5989 44.3557 51.1419 48.0837C44.685 51.8116 36.4285 49.5993 32.7006 43.1423C28.9726 36.6854 31.185 28.4289 37.6419 24.701Z" fill="#6366f1"/>
<path fill-rule="evenodd" clip-rule="evenodd" d="M56.6418 57.6097C55.9244 58.024 55.007 57.7781 54.5928 57.0607L49.8428 48.8335C49.4286 48.116 49.6744 47.1986 50.3918 46.7844C51.1093 46.3702 52.0266 46.616 52.4408 47.3335L57.1908 55.5607C57.6051 56.2781 57.3593 57.1955 56.6418 57.6097Z" fill="#6366f1"/>
</svg>
