<svg width="53" height="55" viewBox="0 0 53 55" fill="none" xmlns="http://www.w3.org/2000/svg">
<path fill-rule="evenodd" clip-rule="evenodd" d="M29.6675 2.5083C41.4263 3.93828 50.7929 13.0479 52.5606 24.6374C52.7052 25.5854 51.9466 26.4076 50.9876 26.4076C50.1428 26.4076 49.4426 25.7631 49.3081 24.9291C47.7375 15.1959 40.0537 7.50182 30.3106 5.86654L27.7101 5.43007V7.87417L22.8075 3.93708L27.7101 0V2.27026L29.6675 2.5083ZM51.2588 35.4903L52.2454 41.6698L50.1364 40.4622L49.0043 42.3074C44.3649 49.8692 35.9931 54.9231 26.4306 54.9231C22.7101 54.9231 19.1668 54.1571 15.9535 52.775C15.0733 52.3963 14.782 51.3167 15.2955 50.5077C15.7425 49.8035 16.6472 49.5569 17.416 49.8805C20.186 51.0465 23.2316 51.6912 26.4306 51.6912C34.7349 51.6912 42.0252 47.3409 46.1178 40.7933L47.3295 38.8549L45.3697 37.7327L51.2588 35.4903ZM7.16773 45.1329L1.27855 42.8905L3.39266 41.6799L2.51974 39.8407C0.903713 36.4359 0 32.6306 0 28.618C0 19.3335 4.83344 11.1721 12.1324 6.49083C12.9319 5.9781 13.9808 6.32929 14.3727 7.19438C14.7205 7.96198 14.4215 8.86302 13.7165 9.32463C7.4164 13.4495 3.25865 20.5506 3.25865 28.618C3.25865 31.8884 3.94115 34.9986 5.17285 37.8166L6.1671 40.0913L8.15426 38.9534L7.16773 45.1329Z" fill="#6366f1"/>
<path fill-rule="evenodd" clip-rule="evenodd" d="M23.1343 16.6062C23.3516 15.7089 24.1548 15.0769 25.0781 15.0769H28.7676C29.6909 15.0769 30.4942 15.7089 30.7114 16.6062L31.2195 18.7041L33.062 17.5799C33.8502 17.099 34.8651 17.2201 35.5179 17.873L38.1268 20.4819C38.7796 21.1347 38.9008 22.1496 38.4199 22.9377L37.2957 24.7803L39.3936 25.2883C40.2909 25.5056 40.9229 26.3089 40.9229 27.2321V30.9217C40.9229 31.8449 40.2909 32.6482 39.3936 32.8655L37.2957 33.3735L38.4199 35.2161C38.9008 36.0042 38.7796 37.0191 38.1268 37.672L35.5179 40.2808C34.8651 40.9337 33.8502 41.0548 33.062 40.5739L31.2195 39.4497L30.7114 41.5476C30.4942 42.4449 29.6909 43.0769 28.7676 43.0769H25.0781C24.1548 43.0769 23.3516 42.4449 23.1343 41.5476L22.6263 39.4497L20.7837 40.5739C19.9955 41.0548 18.9806 40.9337 18.3278 40.2808L15.7189 37.672C15.0661 37.0191 14.9449 36.0042 15.4258 35.2161L16.55 33.3735L14.4521 32.8655C13.5548 32.6482 12.9229 31.8449 12.9229 30.9217V27.2321C12.9229 26.3089 13.5548 25.5056 14.4521 25.2883L16.55 24.7803L15.4258 22.9377C14.9449 22.1496 15.0661 21.1347 15.7189 20.4819L18.3278 17.873C18.9807 17.2201 19.9955 17.099 20.7837 17.5799L22.6263 18.7041L23.1343 16.6062ZM26.9229 17.822C26.1844 17.822 25.5419 18.3275 25.3681 19.0452L24.9831 20.6352C24.8759 21.0778 24.5561 21.4385 24.1295 21.5979C23.9536 21.6636 23.7805 21.7354 23.6107 21.813C23.1961 22.0024 22.7146 21.9736 22.3255 21.7363L20.9287 20.8841C20.2983 20.4994 19.4866 20.5963 18.9644 21.1185C18.4423 21.6407 18.3454 22.4524 18.73 23.0828L19.5822 24.4795C19.8196 24.8686 19.8484 25.3502 19.659 25.7647C19.5814 25.9346 19.5096 26.1076 19.4438 26.2836C19.2844 26.7102 18.9238 27.0299 18.4811 27.1371L16.8912 27.5221C16.1734 27.6959 15.668 28.3384 15.668 29.0769C15.668 29.8154 16.1734 30.4579 16.8912 30.6317L18.4811 31.0167C18.9238 31.1239 19.2844 31.4436 19.4438 31.8702C19.5096 32.0462 19.5814 32.2192 19.659 32.3891C19.8484 32.8036 19.8196 33.2852 19.5822 33.6743L18.73 35.071C18.3454 35.7014 18.4423 36.5132 18.9644 37.0353C19.4866 37.5575 20.2983 37.6544 20.9287 37.2697L22.3255 36.4176C22.7146 36.1802 23.1961 36.1514 23.6107 36.3408C23.7805 36.4184 23.9536 36.4902 24.1295 36.5559C24.5561 36.7154 24.8759 37.076 24.9831 37.5186L25.3681 39.1086C25.5419 39.8263 26.1844 40.3318 26.9229 40.3318C27.6613 40.3318 28.3038 39.8263 28.4776 39.1086L28.8626 37.5186C28.9698 37.076 29.2896 36.7154 29.7162 36.5559C29.8921 36.4902 30.0652 36.4184 30.235 36.3408C30.6496 36.1514 31.1312 36.1802 31.5202 36.4176L32.917 37.2697C33.5474 37.6544 34.3591 37.5575 34.8813 37.0353C35.4034 36.5132 35.5003 35.7014 35.1157 35.071L34.2635 33.6743C34.0261 33.2852 33.9974 32.8037 34.1868 32.3891C34.2644 32.2192 34.3361 32.0462 34.4019 31.8702C34.5613 31.4436 34.9219 31.1239 35.3646 31.0167L36.9545 30.6317C37.6723 30.4579 38.1778 29.8154 38.1778 29.0769C38.1778 28.3384 37.6723 27.6959 36.9545 27.5221L35.3646 27.1371C34.9219 27.0299 34.5613 26.7102 34.4019 26.2836C34.3361 26.1076 34.2644 25.9346 34.1868 25.7647C33.9974 25.3502 34.0261 24.8686 34.2635 24.4795L35.1157 23.0828C35.5003 22.4524 35.4034 21.6407 34.8813 21.1185C34.3591 20.5963 33.5474 20.4994 32.917 20.8841L31.5202 21.7363C31.1312 21.9736 30.6496 22.0024 30.235 21.813C30.0652 21.7354 29.8921 21.6636 29.7162 21.5979C29.2896 21.4385 28.9698 21.0778 28.8626 20.6352L28.4776 19.0452C28.3038 18.3275 27.6613 17.822 26.9229 17.822ZM22.7442 29.0769C22.7442 26.7691 24.6151 24.8983 26.9229 24.8983C29.2307 24.8983 31.1015 26.7691 31.1015 29.0769C31.1015 31.3847 29.2307 33.2556 26.9229 33.2556C24.6151 33.2556 22.7442 31.3847 22.7442 29.0769ZM26.9229 27.6434C26.1311 27.6434 25.4893 28.2852 25.4893 29.0769C25.4893 29.8686 26.1311 30.5105 26.9229 30.5105C27.7146 30.5105 28.3564 29.8686 28.3564 29.0769C28.3564 28.2852 27.7146 27.6434 26.9229 27.6434Z" fill="#6366f1"/>
</svg>
